/* XPM */
static char *_642261938829[] = {
/* columns rows colors chars-per-pixel */
"72 72 239 2 ",
"   c #0D0000",
".  c #0A0A0A",
"X  c #150000",
"o  c #1A0000",
"O  c #1A0B09",
"+  c #111313",
"@  c #1B1B1C",
"#  c #220101",
"$  c #2C0301",
"%  c #240906",
"&  c #240C0B",
"*  c #2A0A0A",
"=  c #290904",
"-  c #340500",
";  c #3C0700",
":  c #360903",
">  c #3B0A03",
",  c #360E09",
"<  c #2B140D",
"1  c #33100D",
"2  c #3D120C",
"3  c #2E1312",
"4  c #271C13",
"5  c #331211",
"6  c #3C1411",
"7  c #3D1915",
"8  c #371B18",
"9  c #332519",
"0  c #1F2021",
"q  c #232425",
"w  c #2C2D2E",
"e  c #262728",
"r  c #333434",
"t  c #393A3B",
"y  c #362E2A",
"u  c #440900",
"i  c #4B0B00",
"p  c #400700",
"a  c #530C00",
"s  c #5B0E00",
"d  c #570E09",
"f  c #43130D",
"g  c #4C140B",
"h  c #5C1104",
"j  c #5C1A0D",
"k  c #551309",
"l  c #431511",
"z  c #491711",
"x  c #441A15",
"c  c #4C1B14",
"v  c #4E1E18",
"b  c #521C15",
"n  c #5C1D13",
"m  c #521F19",
"M  c #621101",
"N  c #6A1302",
"B  c #6C1C0D",
"V  c #66180B",
"C  c #731501",
"Z  c #731C0B",
"A  c #761704",
"S  c #641E11",
"D  c #6C1B12",
"F  c #6F150A",
"G  c #47241B",
"H  c #54221B",
"J  c #5B231A",
"K  c #5A251A",
"L  c #4D311B",
"P  c #67251A",
"I  c #782618",
"U  c #782A12",
"Y  c #4C2421",
"T  c #482A26",
"R  c #542924",
"E  c #5C2B24",
"W  c #5E2F28",
"Q  c #532722",
"!  c #5B312A",
"~  c #573A36",
"^  c #433120",
"/  c #612D24",
"(  c #6C2D22",
")  c #612F28",
"_  c #712F23",
"`  c #7A2A20",
"'  c #64322B",
"]  c #6B342B",
"[  c #693228",
"{  c #743225",
"}  c #7A3528",
"|  c #77372B",
" . c #6C3B34",
".. c #673932",
"X. c #743D33",
"o. c #7A3D33",
"O. c #3F403F",
"+. c #70431A",
"@. c #5A4736",
"#. c #68463B",
"$. c #7D443B",
"%. c #7A4137",
"&. c #614930",
"*. c #3E3F40",
"=. c #3F4041",
"-. c #47494A",
";. c #555757",
":. c #535350",
">. c #6C4942",
",. c #794B44",
"<. c #75554A",
"1. c #7F5852",
"2. c #716B52",
"3. c #646565",
"4. c #77776D",
"5. c #5C5E61",
"6. c #960502",
"7. c #851F13",
"8. c #A6130B",
"9. c #87281A",
"0. c #96291E",
"q. c #87361C",
"w. c #923B1D",
"e. c #A4281E",
"r. c #B3261C",
"t. c #B33D18",
"y. c #AE3C18",
"u. c #85352A",
"i. c #973627",
"p. c #843E32",
"a. c #983C31",
"s. c #922C21",
"d. c #A33326",
"f. c #AC392D",
"g. c #A8362B",
"h. c #B6362B",
"j. c #A43E33",
"k. c #B83429",
"l. c #CC0301",
"z. c #CD0B08",
"x. c #D4130C",
"c. c #D8241B",
"v. c #CD3428",
"b. c #D93328",
"n. c #CA3D30",
"m. c #CE352A",
"M. c #E8372B",
"N. c #F8392D",
"B. c #ED3D31",
"V. c #BA461B",
"C. c #AF4C1C",
"Z. c #814236",
"A. c #824539",
"S. c #894A3E",
"D. c #864838",
"F. c #9D463A",
"G. c #904D30",
"H. c #A8463B",
"J. c #B4453B",
"K. c #BC4538",
"L. c #AE582F",
"P. c #91542A",
"I. c #C7491C",
"U. c #D14E1E",
"Y. c #C75D2D",
"T. c #D75822",
"R. c #CA4639",
"E. c #EB4A3E",
"W. c #F54539",
"Q. c #E35723",
"!. c #C37738",
"~. c #D27230",
"^. c #E96425",
"/. c #E87A2A",
"(. c #F56C29",
"). c #834C43",
"_. c #8B4D42",
"`. c #984C42",
"'. c #85534B",
"]. c #8A554B",
"[. c #89564A",
"{. c #93554B",
"}. c #8D5B53",
"|. c #855953",
" X c #925D53",
".X c #AA4D43",
"XX c #A6554A",
"oX c #B8574C",
"OX c #8A6359",
"+X c #946056",
"@X c #94645C",
"#X c #9A655B",
"$X c #9A695B",
"%X c #947252",
"&X c #A5655C",
"*X c #AA6F53",
"=X c #956861",
"-X c #936760",
";X c #9E7863",
":X c #A77263",
">X c #C54E41",
",X c #D94D41",
"<X c #C65647",
"1X c #CD5E50",
"2X c #CA675B",
"3X c #CD6E62",
"4X c #CC7164",
"5X c #DC8537",
"6X c #C98438",
"7X c #F68833",
"8X c #E59C3B",
"9X c #F89032",
"0X c #F5AE3E",
"qX c #939271",
"wX c #A88668",
"eX c #B68E74",
"rX c #B39172",
"tX c #A7A37B",
"yX c #D78649",
"uX c #D49B58",
"iX c #F0AD45",
"pX c #C79B7A",
"aX c #C49569",
"sX c #D7A46C",
"dX c #F6C65B",
"fX c #A9A883",
"gX c #B8AD84",
"hX c #D6BC94",
"jX c #D9B187",
"kX c #E8BC98",
"lX c #FFB696",
"zX c #E3B087",
"xX c #C89F83",
"cX c #E6C39B",
"vX c #FBCEA9",
"bX c #F5C8A4",
"nX c #FFD2AD",
"mX c #EBC7A1",
"MX c None",
/* pixels */
"MXMXMXMXMXMXMXMXMXMXMXMXMXMXMXMXMXMXMXMXMXMXMXMXMXMXMXMXMXMXMXMXM N C A A C N M s MXMXMXMXMXMXMXMXMXMXMXMXMXMXMXMXMXMXMXMXMXMXMXMXMXMXMXMXMXMXMX",
"MXMXMXMXMXMXMXMXMXMXMXMXMXMXMXMXMXMXMXMXMXMXMXMXMXMXMXMXp i a s s N C A A C N M s a i u MXMXMXMXMXMXMXMXMXMXMXMXMXMXMXMXMXMXMXMXMXMXMXMXMXMXMXMX",
"MXMXMXMXMXMXMXMXMXMXMXMXMXMXMXMXMXMXMXMXMXMXMXMXMXMXu u i i a d M N F A A C N M a a i i i p MXMXMXMXMXMXMXMXMXMXMXMXMXMXMXMXMXMXMXMXMXMXMXMXMXMX",
"MXMXMXMXMXMXMXMXMXMXMXMXMXMXMXMXMXMXMXMXMXMXMXMXu u p i a k j n B B Z Z Z N N M a a a a i u u u MXMXMXMXMXMXMXMXMXMXMXMXMXMXMXMXMXMXMXMXMXMXMXMX",
"MXMXMXMXMXMXMXMXMXMXMXMXMXMXMXMXMXMXMXMXMXMXp p u u g n n P n S P B Z Z Z F N h s i s a i i i u u u MXMXMXMXMXMXMXMXMXMXMXMXMXMXMXMXMXMXMXMXMXMX",
"MXMXMXMXMXMXMXMXMXMXMXMXMXMXMXMXMXMXMXMXMXp u u k J / ( { u.S n V D D C N N N h a a M a a i i i i u u MXMXMXMXMXMXMXMXMXMXMXMXMXMXMXMXMXMXMXMXMX",
"MXMXMXMXMXMXMXMXMXMXMXMXMXMXMXMXMXMXMX> u u g n ' X.%.$.).`.( n j M M M M M s s a h 9.j h i i i i i u u u MXMXMXMXMXMXMXMXMXMXMXMXMXMXMXMXMXMXMX",
"MXMXMXMXMXMXMXMXMXMXMXMXMXMXMXMXMXMXp p u k ' X.,.).|.}. XoX` a a h M M M M h a i V 0._ P j h i i i i u u ; MXMXMXMXMXMXMXMXMXMXMXMXMXMXMXMXMXMX",
"MXMXMXMXMXMXMXMXMXMXMXMXMXMXMXMXMX; p u n X.,.|. X X=X@X XoX9.i a h s s M s s a i Z d.{ { ( P h a i a i u u ; MXMXMXMXMXMXMXMXMXMXMXMXMXMXMXMXMX",
"MXMXMXMXMXMXMXMXMXMXMXMXMXMXMXMX; ; u H ,.{.}.@X=X=X@X X X1Xi.i a a s s s s a a i 7.f.| { _ ( P k i a a u u u ; MXMXMXMXMXMXMXMXMXMXMXMXMXMXMXMX",
"MXMXMXMXMXMXMXMXMXMXMXMXMXMXMX; ; > Q ,.].&X=X=X=X X X X-X2Xg.u i a a s a a a i i 0.K.} } } { ( ( S a a u u u ; ; MXMXMXMXMXMXMXMXMXMXMXMXMXMXMX",
"MXMXMXMXMXMXMXMXMXMXMXMXMXMXMX- ; Q ,.1.=X&X=X-X}.}. X#X#X3Xj.u i i a a a a i i u d.<XZ.| } { _ ( P I a i u u ; ; MXMXMXMXMXMXMXMXMXMXMXMXMXMXMX",
"MXMXMXMXMXMXMXMXMXMXMXMXMXMX- > G #.|.OX&X&X}.'.}. X X#X=X3XH.u u i i a i a i i p d.<X].Z.} { { ( ( I D i u > ; ; - MXMXMXMXMXMXMXMXMXMXMXMXMXMX",
"MXMXMXMXMXMXMXMXMXMXMXMXMX- - z ! ~ <.OX&XXX).'.|. X X#X@X3XH.p u i i i i i u u ; d.<X_.S.} { _ ( ( 9.( k > = - ; ; - MXMXMXMXMXMXMXMXMXMXMXMXMX",
"MXMXMXMXMXMXMXMXMXMXMXMX$ - 2 ! ` } ~ >.`..XF.'.].}. X@X&X3XJ.; ; u u u u i u u ; f.oX_.S.%.} _ ( _ 9.` v , B Z p - - $ MXMXMXMXMXMXMXMXMXMXMXMX",
"MXMXMXMXMXMXMXMXMXMXMXMX$ , T F.Q.h.E T o..XoX.X'.].}. X X&X<Xg ; u u u u p ; ; i R..XS.D.A.| _ s.e.s.D x z y.T.q.- - - MXMXMXMXMXMXMXMXMXMXMXMX",
"MXMXMXMXMXMXMXMXMXMXMX$ $ l #.~.(.v.x T #.A..X,XoX`.'.]. X X1XI - p p p p ; ; ; I >X_.D.$.o.| d.r.0.( n x 2 t.(.Y.g - $ $ MXMXMXMXMXMXMXMXMXMXMX",
"MXMXMXMXMXMXMXMXMXMXMX$ , T &X/.^.U 8 ! X. .o.K.E.E.`.'.].].XXK.u - ; p > ; ; u h.H.A.$.o.a.n.b.e./ S m v 1 U ^./.p.- $ $ MXMXMXMXMXMXMXMXMXMXMX",
"MXMXMXMXMXMXMXMXMXMX# $ 6 #.yX9XI.x Y ' ' .. .o..XW.,X.X)._.'.>X0.- - - - - - 7.R.$.o.o.a.B.N.h.( S J H b 6 f V.9XyXg $ $ # MXMXMXMXMXMXMXMXMXMX",
"MXMXMXMXMXMXMXMXMXMX# * T $XiX/.U 8 R ! ) ' .. .o.j.B.B.j.A.A._.R.D - - - - V n.Z.o.| j.B.B.f.] / m m m c z * I /.iXG.$ $ # MXMXMXMXMXMXMXMXMXMX",
"MXMXMXMXMXMXMXMXMXo % 5 #.uX0XC.5 Y R E E W ' ' ..] a.B.W.h.o.%.j.m.d $ $ d v.j.| o.h.N.M.i.] ) E b b c z z , , C.0XuX7 # # o MXMXMXMXMXMXMXMXMX",
"MXMXMXMXMXMXMXMXMXo * T %XdX5XP 3 Y Y R R E W W ) ' ' u.b.N.f.]  .f.v.d d v.f.] ] f.N.b.u.) ( ) Q b z z z l 6 * M 6XdX%.# # o MXMXMXMXMXMXMXMXMX",
"MXMXMXMXMXMXMXMXX o 3 ! !.iXw.8 8 Y Y Y Q Q R E W ) ) ' | M.k.' ]  .h.b.b.h.] ] [ k.M.` / / E E m z z z l l 6 1 < w.iX6X2 o # X MXMXMXMXMXMXMXMX",
"MXMXMXMXMXMXMXMXX % 9 D.8X6XK & 8 7 7 x x x v v m m H m / c.r.J J n m 9.I P K K J r.c.J m m b b b l l l l 6 6 5 & n !.8XU # o X MXMXMXMXMXMXMXMX",
"MXMXMXMXMXMXMXX   & E L.5XL.3 3 5 6 6 6 6 l 6 l l l z z g x.8.; > > : : : : > f z 8.c.b g z l l l l l 6 6 6 1 5 < < L.5XC.u o X X MXMXMXMXMXMXMX",
"MXMXMXMXMXMXMXX X 3 w.T.Y./ O 5 5 5 5 5 2 6 6 l l l f > ; l.6.# # # # % = = # # & 6.x.z l l l l 6 l 6 6 6 6 5 5 3 O K Y.Y.q.o X X MXMXMXMXMXMXMX",
"MXMXMXMXMXMXMXX X x U.T.w.* & 5 3 5 5 5 5 6 6 6 6 2 - $ $ l.6.O Y |.wXxXpXwX|.L # 6.z.1 1 6 l 6 6 6 6 5 5 5 5 5 1 < & w.T.U., X X MXMXMXMXMXMXMX",
"MXMXMXMXMXMXX X X , U.I.c O 5 5 5 5 5 5 5 5 5 6 6 * # o # l.r.wXkXvXcXhXhXcXnXcXwXr.l.* * < 6 6 6 6 5 5 5 5 5 5 3 1 O 2 I.U.>   X X MXMXMXMXMXMX",
"MXMXMXMXMXMXX X   o k g o % * * * * * * * * * * $ o o o # R.lXnXcXtXqXqXqXtXgXmXnXlXR.= # O = * * * * * * % * * * = o X g k o X X X MXMXMXMXMXMX",
"MXMXMXMXMXMXX X X X o X o # o # # o # # # # # # o X X o <.bXnXcXwX2.;.;.5.4.tXgXmXnXbX<.o X o o # # # # # # # # # # # X X o   X X X MXMXMXMXMXMX",
"MXMXMXMXMXMXX X X X     o # # # # # # # o # # # o X X #.bXnXbXwX@.O.=.;.;.3.fXtXgXbXnXmX>.X X X o # # # # # # # # # # o     X X X o MXMXMXMXMXMX",
"MXMXMXMXMXo o X X X X X X o # # # # # o # # o o o X T hXnXvXsX>.r O.-.;.5.4.fXfXtXhXnXnXkXT X o o o # # # # # # # o o X X X X X X X o MXMXMXMXMX",
"MXMXMXMXMXX o X o X o X o X o o o o o o o o o X o O rXnXvXvX%Xy r O.-.5.3.4.fX4.4.gXvXnXnXtX& X o o o o o # o o o o o X X X X o X X o MXMXMXMXMX",
"MXMXMXMXMXX o X o X o X o X o o o o o o o o X o X @.vXnXvXbX&.e r O.-.;.5.3.5.:.2.qXcXnXnXbX&.  o X X o X o o o X o X o o o X o o X X MXMXMXMXMX",
"MXMXMXMXMXMXo o o X o o o X o o o o o o o X o o * eXnXnXnXsXy q r O.=.;.;.5.;.=.@.qXcXnXnXnXpX% X o o o o X o o o o o o o o o o o o MXMXMXMXMXMX",
"MXMXMXMXMXMXMXo o o o o o o o o o o o # # O o < ;XnXnXnXnXsX9 q w t =.:.;.;.:.-.O.4.hXnXnXvXvXwX8 o # O # # o O o o o o o X o o o MXMXMXMXMXMXMX",
"MXMXMXMXMXMXMXo o o o o o o o # % # % % % % % 8 ;XvXvXnXnXpX4 0 w r =.=.=.=.=.=.r 2.sXnXnXnXnXwX8 % % % % % # # # o o o o o o o o MXMXMXMXMXMXMX",
"MXMXMXMXMXMXo o o X X o o o o o o o o X X o o X & xXnXnXnXsX4 @ q w r =.=.=.=.=.y 2.cXnXnXnXxX3 X X o X X o X o o o o o o X X o X o MXMXMXMXMXMX",
"MXMXMXMXMXMXo o o o o X o X o X o o o X X o X o X #.bXnXnXzX9 + 0 e w r *.r *.w y %XcXnXvXvX#.X o o X o o o o o o X o X o o o X o o o MXMXMXMXMX",
"MXMXMXMXMXX X X X X X o X o X o o o o o o o o X X & eXnXnXbX&.. @ 0 e e w w w e y wXbXnXnXeX* X X o o o o o o o o o o X X X X o X o X MXMXMXMXMX",
"MXMXMXMXMXo X X X X X X X o o # # # # # # # o o o X T kXnXnX*XO + + 0 0 q q q @ &.rXnXnXkXT X o o o # o # # o # o # o o X X X X o X X MXMXMXMXMX",
"MXMXMXMXMXMXo X X X     o # # # # # # # o # # # X X X >.bXnXkXL . + + @ @ @ @ 9 P.cXnXvX<.X X X # # # # # # # # # # # o     X X X X MXMXMXMXMXMX",
"MXMXMXMXMXMXX X X   o X X # # # # # # # # # # # o o X o 1.bXnXaX< . + + + + 4 { pXnXbX%XO o X o # # # # # # # # # # # X X o   X X X MXMXMXMXMXMX",
"MXMXMXMXMXMXX X X o i g X o = * = * % * * * * = = = O O = <XlXnXwXG . . O < +.aXnXlXY.O o o o $ * = = * * % * % = * # O g i o X X X MXMXMXMXMXMX",
"MXMXMXMXMXMXX X X : I.V.2 O 3 5 3 5 5 5 5 5 5 6 6 6 * * * l.r.rXmXsX*XP.P.6XzXmXrXk.l.# o # * , 5 5 5 5 5 5 5 5 5 5 O f V.I.u X X X MXMXMXMXMXMX",
"MXMXMXMXMXMXMXX X > U.T.i.& * 5 * 5 5 5 5 2 6 6 6 6 6 1 , z.6.% ! %XeXpXfXrX%X! = 6.l.$ # - 2 6 6 6 5 6 5 5 5 3 5 3 & w.T.T.x X X MXMXMXMXMXMXMX",
"MXMXMXMXMXMXMXX   o q.T.Y.H O * 5 5 5 6 6 6 6 l l l l z l x.6.& = o = * * % # o o 6.l.; > f l l 6 6 6 6 1 5 5 5 3 O L Y.T.F.5 X X MXMXMXMXMXMXMX",
"MXMXMXMXMXMXMXX X o > C.5XL.3 3 5 6 6 6 l 6 l l l z z z b x.8.f f > : : - - - > ; 8.z.d z l l l l l l 6 6 6 1 5 3 & L.5XC.! & X X MXMXMXMXMXMXMX",
"MXMXMXMXMXMXMXMXX o # U 8X!.H O 6 6 6 l l l z z c b b m J c.r.J J J S I ` n m n b r.c.E m m b v c c x x x 7 7 7 & H !.8XG.8 & X MXMXMXMXMXMXMXMX",
"MXMXMXMXMXMXMXMXX o # 2 6XiXw.* 1 6 6 l l l z H E E / E ` M.k.) ' ] g.b.b.f.] ] ' k.M.o.) ) W W E R Q Q Q T Y 8 5 q.iX6X..3 o X MXMXMXMXMXMXMXMX",
"MXMXMXMXMXMXMXMXMXo # # P.dX~.j * 6 l l z z c K / ) ) } b.N.f.]  .g.b.h d b.f.X.] f.N.b.u.' ' ) W W E R R Y Y 4 n ~.dX%XT * o MXMXMXMXMXMXMXMXMX",
"MXMXMXMXMXMXMXMXMXo # # 6 uX0XC., 1 z z c b b E [ [ u.M.N.k.o.] a.m.d $ - d n.a.X.p.h.B.M.a...' ' ) W E E R 7 1 C.0XuX>.8 % o MXMXMXMXMXMXMXMXMX",
"MXMXMXMXMXMXMXMXMXMX# # # G.iX5XU * l c b m n / [ g.B.N.f.o.o.p.n.F - - - - D n._.,.o.j.W.B.j.X...' ) W W R 8 U /.iX:XT * # o MXMXMXMXMXMXMXMXMX",
"MXMXMXMXMXMXMXMXMXMX# $ = f yX9XI.f 6 c m n m P g.N.B.a.o.o.%.J.0.- - ; - - - 0.>X).)._..XE.W.J.X. .....! Y 6 V.9XyX>.7 $ $ MXMXMXMXMXMXMXMXMXMX",
"MXMXMXMXMXMXMXMXMXMXMX$ $ $ G./.^.U 1 m n J / 0.b.n.a.o.$.A.F.n.u ; ; ; ; ; - p n.XX].].).`.,XE..Xo.X...! 8 I ^.7X*XT , $ MXMXMXMXMXMXMXMXMXMXMX",
"MXMXMXMXMXMXMXMXMXMXMX$ - - z T.(.t.2 z m ( s.r.d.u.o.o.A._.>X9.- ; ; p p > ; - ` 1X X X].|.`.>X,XK.$.X.! 7 g.(.~.X.l * $ MXMXMXMXMXMXMXMXMXMXMX",
"MXMXMXMXMXMXMXMXMXMXMXMX- - - U Q.t.k 7 P 9.e.s.( | %.D.S.XXR.i > p u u u u p ; u <X&X X X}.].]..X>XH.$.T H y.Q..XY , $ MXMXMXMXMXMXMXMXMXMXMXMX",
"MXMXMXMXMXMXMXMXMXMXMXMX- - - f U B 2 c I 0.` ( _ } Z.S._.oXh.; p u u i u u u p ; J.3X#X X X}.].'.`..XF.>.~ u.q...l - - MXMXMXMXMXMXMXMXMXMXMXMX",
"MXMXMXMXMXMXMXMXMXMXMXMXMX- ; - - = ; b P 9.( ( _ { } S._.<Xg.p u u i i i i i u > j.3X&X X#X X|.'.).XX&XOX<.~ ! x - - MXMXMXMXMXMXMXMXMXMXMXMXMX",
"MXMXMXMXMXMXMXMXMXMXMXMXMXMX; ; ; ; p i S ` ( ( _ } } %.[.<Xg.; u i i i i i i i > j.4X=X&X X}.}.].|.:X=XOX1.>.Q > - MXMXMXMXMXMXMXMXMXMXMXMXMXMX",
"MXMXMXMXMXMXMXMXMXMXMXMXMXMXMX; ; p i u a P P ( ( { } | p.<Xg.u i i a a a a i i p j.3X#X#X+X}.}.-X=X&X&X|.,.E > ; : MXMXMXMXMXMXMXMXMXMXMXMXMXMX",
"MXMXMXMXMXMXMXMXMXMXMXMXMXMXMX; ; p p i a h J ( ( { { } } K.e.u i a a a a a a i p g.3X#X X X+X-X-X-X&X X,.W > > - MXMXMXMXMXMXMXMXMXMXMXMXMXMXMX",
"MXMXMXMXMXMXMXMXMXMXMXMXMXMXMXMX; p p i a a a j P ( { { } g.7.i a a a M s a a a u i.1X X X@X-X-X-X X{.,.E u ; ; MXMXMXMXMXMXMXMXMXMXMXMXMXMXMXMX",
"MXMXMXMXMXMXMXMXMXMXMXMXMXMXMXMXMXp p u i a i a h P _ { } d.Z i s a s s M s s a u 9.1X X@X#X-X}.|.,.$.J u p ; MXMXMXMXMXMXMXMXMXMXMXMXMXMXMXMXMX",
"MXMXMXMXMXMXMXMXMXMXMXMXMXMXMXMXMXMXu u i i i i a a j P _ s.B i a s M M M M h a i _ oX@X}.}.'.,.%.' j p ; ; MXMXMXMXMXMXMXMXMXMXMXMXMXMXMXMXMXMX",
"MXMXMXMXMXMXMXMXMXMXMXMXMXMXMXMXMXMXMXp u u u i i a a s V 9.h a a s M M M M M h j I `.).$.%.X.] J g u u p MXMXMXMXMXMXMXMXMXMXMXMXMXMXMXMXMXMXMX",
"MXMXMXMXMXMXMXMXMXMXMXMXMXMXMXMXMXMXMXMXMXu u i i i a i a N a a s N N N N B D P S P u.| [ / K k u u u MXMXMXMXMXMXMXMXMXMXMXMXMXMXMXMXMXMXMXMXMX",
"MXMXMXMXMXMXMXMXMXMXMXMXMXMXMXMXMXMXMXMXMXMXu u u i i i s a a a s V Z F Z Z B D S n P P J k i u u u MXMXMXMXMXMXMXMXMXMXMXMXMXMXMXMXMXMXMXMXMXMX",
"MXMXMXMXMXMXMXMXMXMXMXMXMXMXMXMXMXMXMXMXMXMXMXMXu u u i a a i s s N C Z Z Z B B j j k d i u u p MXMXMXMXMXMXMXMXMXMXMXMXMXMXMXMXMXMXMXMXMXMXMXMX",
"MXMXMXMXMXMXMXMXMXMXMXMXMXMXMXMXMXMXMXMXMXMXMXMXMXu u u i i i s M N N A Z C N M s i i i u u u MXMXMXMXMXMXMXMXMXMXMXMXMXMXMXMXMXMXMXMXMXMXMXMXMX",
"MXMXMXMXMXMXMXMXMXMXMXMXMXMXMXMXMXMXMXMXMXMXMXMXMXMXMXMXu i a s M M C A A C N M s a i u MXMXMXMXMXMXMXMXMXMXMXMXMXMXMXMXMXMXMXMXMXMXMXMXMXMXMXMX",
"MXMXMXMXMXMXMXMXMXMXMXMXMXMXMXMXMXMXMXMXMXMXMXMXMXMXMXMXMXMXMXs M N C A A C N M s MXMXMXMXMXMXMXMXMXMXMXMXMXMXMXMXMXMXMXMXMXMXMXMXMXMXMXMXMXMXMX"
};
