/* XPM */
static char *a2lzc3BuZy1wb3J0YWwtZG93bmxvYWQtcG9ydGFsLXRyYW5zcGFyZW50LXBuZy01YTcxZjUxNzgxMDYxNC4zNjUwOTg0MjE1MTc0MTc3NTE1Mjg1KyUyODIlMjk_[] = {
/* columns rows colors chars-per-pixel */
"72 72 138 2 ",
"   c #388FF2",
".  c #3D92F3",
"X  c #4196F4",
"o  c #459AF4",
"O  c #499EF5",
"+  c #4DA2F5",
"@  c #4FA9F6",
"#  c #51A5F6",
"$  c #54AAF7",
"%  c #59ADF7",
"&  c #5CAFF8",
"*  c #56B1F7",
"=  c #5AB1F7",
"-  c #5EB3F8",
";  c #5EB9F8",
":  c #60AFF8",
">  c #61B1F7",
",  c #63B5F8",
"<  c #65BBF9",
"1  c #6BBDF9",
"2  c #72BEFA",
"3  c #65C2F9",
"4  c #6CC3FA",
"5  c #6DCAFA",
"6  c #73C4FA",
"7  c #7AC6FB",
"8  c #74CBFB",
"9  c #7CCBFB",
"0  c #6BD0FB",
"q  c #75D2FC",
"w  c #7BD2FC",
"e  c #76D9FD",
"r  c #7BD9FD",
"t  c #84C7FB",
"y  c #82CDFC",
"u  c #8CCEFC",
"i  c #83D3FC",
"p  c #82D1FC",
"a  c #85D1FD",
"s  c #84D1FC",
"d  c #87D1FD",
"f  c #86D0FD",
"g  c #85D3FC",
"h  c #82D4FC",
"j  c #85D4FC",
"k  c #87D6FD",
"l  c #86D4FE",
"z  c #84D2FC",
"x  c #88D0FC",
"c  c #8BD1FC",
"v  c #89D2FC",
"b  c #89D3FC",
"n  c #8BD3FD",
"m  c #8DD3FD",
"M  c #8BD4FD",
"N  c #8AD5FD",
"B  c #88D7FD",
"V  c #8AD7FD",
"C  c #8DD5FC",
"Z  c #8ED5FD",
"A  c #8CD5FD",
"S  c #84DAFD",
"D  c #84DDFD",
"F  c #84DBFD",
"G  c #8ADBFD",
"H  c #8ED8FD",
"J  c #8ADDFE",
"K  c #8BDBFD",
"L  c #90D5FD",
"P  c #91D5FD",
"I  c #92D6FD",
"U  c #92D5FD",
"Y  c #91D9FD",
"T  c #93DAFD",
"R  c #96D9FD",
"E  c #94DAFD",
"W  c #94DBFD",
"Q  c #97DBFD",
"!  c #96DBFE",
"~  c #92DEFE",
"^  c #95DFFE",
"/  c #94DBFD",
"(  c #99DBFE",
")  c #99DDFE",
"_  c #9ADCFE",
"`  c #98DEFE",
"'  c #9ADFFE",
"]  c #9EDEFD",
"[  c #9DDEFE",
"{  c #9EDFFE",
"}  c #9FDFFE",
"|  c #9CDDFE",
" . c #A0DFFD",
".. c #A0DEFE",
"X. c #81E2FE",
"o. c #8BE5FE",
"O. c #8BEAFF",
"+. c #97E3FE",
"@. c #94E4FE",
"#. c #94E3FE",
"$. c #9DE0FE",
"%. c #9FE0FE",
"&. c #9EE3FE",
"*. c #9DE3FE",
"=. c #93EAFF",
"-. c #9BEBFF",
";. c #A0E1FE",
":. c #A2E2FF",
">. c #A4E3FE",
",. c #A5E3FE",
"<. c #A5E3FF",
"1. c #A5E4FE",
"2. c #A4E3FE",
"3. c #A8E5FF",
"4. c #ACE7FF",
"5. c #AAE6FF",
"6. c #A3E9FE",
"7. c #ABE8FF",
"8. c #AFE8FF",
"9. c #ADE9FF",
"0. c #B0EAFF",
"q. c #B3EBFF",
"w. c #B5EBFF",
"e. c #B6ECFF",
"r. c #B3EAFF",
"t. c #B8EDFF",
"y. c #BBEDFF",
"u. c #A8F0FF",
"i. c #B6F0FF",
"p. c #BAF3FF",
"a. c #C5F2FF",
"s. c #C3F3FF",
"d. c #C8F4FF",
"f. c #CEF8FF",
"g. c #D1F7FF",
"h. c #D1F8FF",
"j. c None",
"k. c black",
/* pixels */
"j.j.j.j.j.j.j.j.j.j.j.j.j.j.j.j.j.j.j.j.j.j.j.j.j.j.j.j.j.j.j.j.j.j.j.j.j.j.j.j.j.j.j.j.j.j.j.j.j.j.j.j.j.j.j.j.j.j.j.j.j.j.j.j.k.k.k.k.k.k.k.k.",
"j.j.j.j.j.j.j.j.j.j.j.j.j.j.j.j.j.j.j.j.j.j.j.j.j.j.j.j.j.j.j.j.j.j.j.j.j.j.j.j.j.j.j.j.j.j.j.j.j.j.j.j.j.j.j.j.j.j.j.j.j.j.j.j.k.k.k.k.k.k.k.k.",
"j.j.j.j.j.j.j.j.j.j.j.j.j.j.j.j.j.j.j.j.j.j.j.j.j.j.j.j.j.j.j.j.j.j.j.j.j.j.j.j.j.j.j.j.j.j.j.j.j.j.j.j.j.j.j.j.j.j.j.j.j.j.j.j.k.k.k.k.k.k.k.k.",
"j.j.j.j.j.j.j.j.j.j.j.j.j.j.j.j.j.j.j.j.j.j.j.j.j.j.j.j.j.j.j.j.j.j.j.j.j.j.j.j.j.j.j.j.j.j.j.j.j.j.j.j.j.j.j.j.j.j.j.j.j.j.j.j.k.k.k.k.k.k.k.k.",
"j.j.j.j.j.j.j.j.j.j.j.j.j.j.j.j.j.j.j.j.j.j.j.j.j.j.j.j.j.j.j.j.j.j.j.j.j.j.j.j.j.j.j.j.j.j.j.j.j.j.j.j.j.j.j.j.j.j.j.j.j.j.j.j.k.k.k.k.k.k.k.k.",
"j.j.j.j.j.j.j.j.j.j.j.j.j.j.j.j.j.j.j.j.j.j.j.j.j.j.j.j.j.j.j.j.j.j.j.j.j.j.j.j.j.j.j.j.j.j.j.j.j.j.j.j.j.j.j.j.j.j.j.j.j.j.j.j.k.k.k.k.k.k.k.k.",
"j.j.j.j.j.j.j.j.j.j.j.j.j.j.j.j.j.j.j.j.j.j.j.j.j.j.j.j.j.j.j.j.j.j.j.j.j.j.j.j.j.j.j.j.j.j.j.j.j.j.j.j.j.j.j.j.j.j.j.j.j.j.j.j.k.k.k.k.k.k.k.k.",
"j.j.j.j.j.j.j.j.j.j.j.j.j.j.j.j.j.j.j.j.j.j.j.j.j.. + # o X - 1 6 j.j.j.j.j.j.j.j.j.j.j.j.% 1 6 6 j.j.j.j.j.j.j.j.j.j.j.j.j.j.j.k.k.k.k.k.k.k.k.",
"j.j.j.j.j.j.j.j.j.j.j.j.j.j.j.j.j.j.j.j.j.j.j.j.. + < , j.j.j.7 y G E , X X o o o . j.. X % 6 c A 7 j.j.j.j.j.j.j.j.j.j.j.j.j.j.k.k.k.k.k.k.k.k.",
"j.j.j.j.j.j.j.j.j.j.j.j.j.j.j.j.j.j.j.j.j.j.. o o - > $ = % < 8 7 4 7 7 % @ < , = + X . o $ 4 9 T A < j.j.j.j.j.j.j.j.j.j.j.j.j.k.k.k.k.k.k.k.k.",
"j.j.j.j.j.j.j.j.j.j.j.j.j.j.j.j.j.j.j.j.j.. . % 6 7 7 7 7 1 1 < < < 3 9 c 7 1 V V < @ # $ % < < 7 9 y 1 j.j.j.j.j.j.j.j.j.j.j.j.k.k.k.k.k.k.k.k.",
"j.j.j.j.j.j.j.j.j.j.j.j.j.j.j.j.j.j.j.j.. . . O 1 y | ^ l 7 7 7 p j h p p 9 6 9 y 5 7 8 y 9 j., , ; 1 d 2 j.j.j.j.j.j.j.j.j.j.j.k.k.k.k.k.k.k.k.",
"j.j.j.j.j.j.j.j.j.j.j.j.j.j.j.j.j.j.j.. X X O < I <.l 8 4 < 1 ( w.w.w.3.( | <.| ( $.' ..| E 2 o + # + % 6 % . j.j.j.j.j.j.j.j.j.k.k.k.k.k.k.k.k.",
"j.j.j.j.j.j.j.j.j.j.j.j.j.j.j.j.@ . . X o , < I <.S r 5 4 6 6 c c Q 9 < 2 p V G T <.' ' T 9 7 X . . . . , 8 O   j.j.j.j.j.j.j.j.k.k.k.k.k.k.k.k.",
"j.j.j.j.j.j.j.j.j.j.j.j.j.j.j., , > $ + - y ;.9.h w r q w c 9 < > > O o - 8 9 q 3 4 8 w $.1 4 # + # + . + l , . . j.j.j.j.j.j.j.k.k.k.k.k.k.k.k.",
"j.j.j.j.j.j.j.j.j.j.j.j.j.j.O & X % $ % w 1.9.J 8 q D @.<.c % = > . j.j.j.6 4 4 - # < 5 g y 9 y I A 6 $ o 7 7 O . j.j.j.j.j.j.j.k.k.k.k.k.k.k.k.",
"j.j.j.j.j.j.j.j.j.j.j.j.j.. # 1 # ; - 1 y.a.5.^ H ~ @.E t # X = X j.j.j.j.7 7 4 , & < 1 3 3 8 G $.9.| 9 & % 6 1 + X j.j.j.j.j.j.k.k.k.k.k.k.k.k.",
"j.j.j.j.j.j.j.j.j.j.j.j.. . O 6 ; < < 7 w.5.E y d *.9 % + . + # . j.j.j.j.j.j.j.j.. . X % < # 9 1.1.<.U 7 1 < 2 2 % X . j.j.j.j.k.k.k.k.k.k.k.k.",
"j.j.j.j.j.j.j.j.j.j.j.o . X % = ; < y 2 T h < % 3 r + . . j.; j.j.j.j.j.j.j.j.j.j.j.j.. . % 6 , c 4.y.8.5.c 6 1 < 1 , # X j.j.j.k.k.k.k.k.k.k.k.",
"j.j.j.j.j.j.j.j.j.O % # . + 4 < ; < ( t ' p < > @ 5 . . . j.j.j.j.j.j.j.j.j.j.j.j.j.j.j.j.. , 6 < g 3.5.5.q.| c < % % < < , < j.k.k.k.k.k.k.k.k.",
"j.j.j.j.j.j.j.j.% > + . o < y 3 ; y ..d <.7 6 + X + . . j.j.j.j.j.j.j.j.j.j.j.j.j.j.j.j.j.j.# 6 - < 6 c E 5.w.4.8 $ + % 7 c 8 4 k.k.k.k.k.k.k.k.",
"j.j.j.j.j.j.j.j., O . . # 4 8 3 8 <.A H E < 6 o . . j.j.j.j.j.j.j.j.j.j.j.j.j.j.j.j.j.j.j.j.j., 6 @ # = 3 I 8.4.H * + = 9 | 9 6 , k.k.k.k.k.k.k.",
"j.j.j.j.j.j.j.. - + j.j.& 1 8 p ^ I y ' 7 4 , . j.j.j.j.j.j.j.j.j.j.j.j.j.j.j.j.j.j.j.j.j.j.j.j.1 9 9 9 6 w q.w.1.1 @ - 7 5.H 5 , k.k.k.k.k.k.k.",
"j.j.j.j.j.j.j.. - % j.# % 7 ' 5.V 7 T E 9 6 j.j.j.j.j.j.j.j.j.j.j.j.j.j.j.j.j.j.j.j.j.j.j.j.j.j.j.9 y 9 w 9 1.w.7.7 % = 3 ;.' 3 $ k.k.k.k.k.k.k.",
"j.j.j.j.j.j.j.j.- > j.+ - | 8.A 5 9 ^ 6 # X j.j.j.j.j.j.j.j.j.j.j.j.j.j.j.j.j.j.j.j.j.j.j.j.j.j.j.6 p y 9 c 5.9.>.E = $ ; p $.1 o k.k.k.k.k.k.k.",
"j.j.j.j.j.j.j.j.& & j.+ 6 $.y 1 5 S 7 O . j.j.j.j.j.j.j.j.j.j.j.j.j.j.j.j.j.j.j.j.j.j.j.j.j.j.j.j.= 1 p G 9 $.;.A 5.9 * @ # 9 1 . . k.k.k.k.k.k.",
"j.j.j.j.j.j.j.j.> < # # 6 t < * 8 G & . j.j.j.j.j.j.j.j.j.j.j.j.j.j.j.j.j.j.j.j.j.j.j.j.j.j.j.j.j.j.% , 6 w H >.T ' 1.6 * + # 1 o . k.k.k.k.k.k.",
"j.j.j.j.j.j.j.j.$ 1 < % 6 1 6 * e d #   j.j.j.j.j.j.j.j.j.j.j.j.j.j.j.j.j.j.j.j.j.j.j.j.j.j.j.j.j.j.j.j.j.= r -.q.1.q.E < # o % + . k.k.k.k.k.k.",
"j.j.j.j.j.j.j.j.. o , < , < 6 ; X.7 o . j.j.j.j.j.j.j.j.j.j.j.j.j.j.j.j.j.j.j.j.j.j.j.j.j.j.j.j.j.j.j.j.j.O < r -.u.7.7.3 $ o . X . k.k.k.k.k.k.",
"j.j.j.j.j.j.j.j.j.O 1 6 2 , y 5 =.9 + . j.j.j.j.j.j.j.j.j.j.j.j.j.j.j.j.j.j.j.j.j.j.j.j.j.j.j.j.j.j.j.j.j.$ < 8 #.u.=.>.6 + o . O O k.k.k.k.k.k.",
"j.j.j.j.j.j.j.j.. o > 7 t A 1.@.o.4 $ X j.j.j.j.j.j.j.j.j.j.j.j.j.j.j.j.j.j.j.j.j.j.j.j.j.j.j.j.j.j.j.j.j.% 4 3 q *.9.J w # . . , O . k.k.k.k.k.",
"j.j.j.j.j.j.j.j.. o > t t 1.q.*.r 5 * o j.j.j.j.j.j.j.j.j.j.j.j.j.j.j.j.j.j.j.j.j.j.j.j.j.j.j.j.j.j.j.j.j.j.1 4 0 S 5.y p 1 $ o 2 $   k.k.k.k.k.",
"j.j.j.j.j.j.j.j.. O # u t | q.G o.8 < o j.j.j.j.j.j.j.j.j.j.j.j.j.j.j.j.j.j.j.j.j.j.j.j.j.j.j.j.j.j.j.j.j.j.% 9 8 8 T y , 2 $ $ 7 $   k.k.k.k.k.",
"j.j.j.j.j.j.j.j.. o # c P U q.J =.D 6 # j.j.j.j.j.j.j.j.j.j.j.j.j.j.j.j.j.j.j.j.j.j.j.j.j.j.j.j.j.j.j.j.j.j.$ 4 w q ^ U # 1 : O , #   k.k.k.k.k.",
"j.j.j.j.j.j.j.j.. X & | | c 9.o.o.o.w > j.j.j.j.j.j.j.j.j.j.j.j.j.j.j.j.j.j.j.j.j.j.j.j.j.j.j.j.j.j.j.j.j.j.% 6 9 S ~ ' % + 2 O 1 # . j.k.k.k.k.",
"j.j.j.j.j.j.j.j.. X < ;.<.T ;.=.O.r w < o j.j.j.j.j.j.j.j.j.j.j.j.j.j.j.j.j.j.j.j.j.j.j.j.j.j.j.j.j.j.j.j.j.& 1 w w h V < + 2 , A - . j.k.k.k.k.",
"j.j.j.j.j.. j.j.. o 6 ..' p =.=.r e w < X j.j.j.j.j.j.j.j.j.j.j.j.j.j.j.j.j.j.j.j.j.j.j.j.j.j.j.j.j.j.j.j.j.= 1 8 h y w 9 < w 7 | > . . k.k.k.k.",
"j.j.j.j.j.j.X j.j.% V u A 7 o.D r q 4 % j.j.j.j.j.j.j.j.j.j.j.j.j.j.j.j.j.j.j.j.j.j.j.j.j.j.j.j.j.j.j.j.j.j., 6 8 9 7 p 7 7 l ^ ;.1 O . k.k.k.k.",
"j.j.j.j.j.j.. j.X < 1 < u c +.r 4 3 = o j.j.j.j.j.j.j.j.j.j.j.j.j.j.j.j.j.j.j.j.j.j.j.j.j.j.j.j.j.j.j.j.j.j.j.6 7 3 7 H 6 8 T 4.V < # k.. k.k.k.",
"j.j.j.j.j.j.  o , 6 # % y ^ y r * + + . j.j.j.j.j.j.j.j.j.j.j.j.j.j.j.j.j.j.j.j.j.j.j.j.j.j.j.j.j.j.j.j.j.j.j.$ = < 7 ^ 6 C 5.I 6 = & k.. k.k.k.",
"j.j.j.j.j.j.% & > O O # y ~ < < 0 * o . j.j.j.j.j.j.j.j.j.j.j.j.j.j.j.j.j.j.j.j.j.j.j.j.j.j.j.j.j.j.j.j.j.j.j.$ = = 3 #.6 | 4.P 1 % o k.k.k.k.k.",
"j.j.j.j.j.j.< O .   # # U | 5 3 q e , o . . j.j.j.j.j.j.j.j.j.j.j.j.j.j.j.j.j.j.j.j.j.j.j.j.j.j.j.j.j.j.j.j.j., < ; < +.8 A ;.c $ # . k.k.k.k.k.",
"j.j.j.j.j.j.& X X . + @ <.5.J e w q 3 # . . . j.j.j.j.j.j.j.j.j.j.j.j.j.j.j.j.j.j.j.j.j.j.j.j.j.j.j.j.j.j.j.j., < 1 A E 8 d ~ 1 O . k.k.k.k.k.k.",
"j.j.j.j.j.X X . . O & + ( 9.9.J r r 4 & . . . j.j.j.j.j.j.j.j.j.j.j.j.j.j.j.j.j.j.j.j.j.j.j.j.j.j.j.j.j.j.j.1 8 < c ' < ; G A # X o k.k.k.k.k.k.",
"j.j.j.j.j.j.o X . > # % 2 <.w.@.w r 8 % . . . . j.j.j.j.j.j.j.j.j.j.j.j.j.j.j.j.j.j.j.j.j.j.j.j.j.j.j.j.j.j.j.< 9 T I - ; G c # o k.k.k.k.k.k.k.",
"j.j.j.j.j.j.% X o > X > u u q.$.q q q 3 + X . . j.j.j.j.j.j.j.j.j.j.j.j.j.j.j.j.j.j.j.j.j.j.j.j.j.j.j.j.j.j.# $ < +.^ 9 4 V 7 @ o X k.k.k.k.k.k.",
"j.j.j.j.j.j.1 + o > . $ y 1 $.T 5 5 3 < = = % + X j.j.j.j.j.j.j.j.j.j.j.j.j.j.j.j.j.j.j.j.j.j.j.j.j.j.j.j.% 1 3 9 S =.;.I ' 1 @ o . k.k.k.k.k.k.",
"j.j.j.j.j.j.1 < o < & % y > y ;.l 5 5 5 = o o + o j.j.j.j.j.j.j.j.j.j.j.j.j.j.j.j.j.j.j.j.j.j.j.j.j.j.j.j.1 8 B ^ 1.O.J ;.1.6 @ O . k.k.k.k.k.k.",
"j.j.j.j.j.j.j.1 O O 6 & c d 9 w.1.q F r 3 # @ # + j.j.j.j.j.j.j.j.j.j.j.j.j.j.j.j.j.j.j.j.j.j.j.j.j.j.j.# 6 h V $.y.D r 1.Q < , + . . k.k.k.k.k.",
"j.j.j.j.j.j.j.1 %   > < , | 5.p.s.G S J 3 5 7 3 ; # % + . . . . . j.j.j.j.j.j.j.j.j.j.j.j.j.j.j.j.j.. X + 3 J q $.y.*.h <.9 $ + X . . k.k.k.k.k.",
"j.j.j.j.j.j.j., 1 X O 1 , 6 ;.w.w.q.w 6 3 4 w 9 8 < @ . o # # + X % j.j.j.j.j.j.j.j.j.j.j.j.j.9 j.o X . + < C S q.q.T 9 L < # o . k.. k.k.k.k.k.",
"j.j.j.j.j.j.j.j.- O . X # 6 9 1.9.y.3.2 > p G w r ; . . < 1 % % < < < j.j.j.j.j.j.8 j.j.j.j.j.w > % + O 1 6 A E 5.;.Q 6 1 = + o k.k.k.k.k.k.k.k.",
"j.j.j.j.j.j.j.j.X X 1 - . o 2 y | 3...u 4 8 +.#.H 1 + + 3 o . # 1 w q % j.j.j.j.j.8 1 j.j.O $ 7 9 1 6 1 1 y <. .E t 1 % % # X . k.k.k.k.k.k.k.k.",
"j.j.j.j.j.j.j.j.j.O , 9 7 - 7 <.w.y.U < 1 $ 7 I 9 6 9 c 1 . + 1 4 8 J 3 = 4 8 4 ; 1 6 . X $ < 7 #.j % # 6 ;.8.<.9 ; + O = # . . k.k.k.k.k.k.k.k.",
"j.j.j.j.j.j.j.j.j.j.. @ 7 y 7 T 5.9.c + , > O $ y 6 4 C 1 , 9 | 1.>.-.9 < q 8 5 4 6 6 X # 3 8 q o.9 1 9 W 5.w.;.< # o o # , X j.k.k.k.k.k.k.k.k.",
"j.j.j.j.j.j.j.j.j.j.k.k.+ - + - A y 6 # O 6 < + = ' ^ | 1 # 6 ( q.s.u.*.p r F H S 9 w 9 T 9.q.6.*.J 1.9.$.<.Q 9 - # X X o 1 + j.k.k.k.k.k.k.k.k.",
"j.j.j.j.j.j.j.j.j.j.j.j.j.j.. X 6 1 7 , . + 1 1 , P | 5.U < , ' s.s.-.u.9.6.i.s.s.*.J w y $.s.h.y.| y.8.I 9 4 3 % O . . X > # j.k.k.k.k.k.k.k.k.",
"j.j.j.j.j.j.j.j.j.j.j.j.j.j.. . + % 7 6 o + o o O 1 < < 6 p 9 t 5.w.@.1.3.p.f.s.s.9.6 # , q 9.d...c 5.<.9 3 , $ O . . . X : o j.k.k.k.k.k.k.k.k.",
"j.j.j.j.j.j.j.j.j.j.j.j.j.j.j.. . O 1 1 O . . O o O O . X # # O , y c t V y.s.p.s.| y 7 d E 9.1.G t 9.| < = + o . . . . % > j.j.k.k.k.k.k.k.k.k.",
"j.j.j.j.j.j.j.j.j.j.j.j.j.j.j.. . X - % o . . .   X . . . . .   . > & = % q 6.f.y.I A y E q.y.~ <.2 c 6 % + o . . # # % % # j.j.k.k.k.k.k.k.k.k.",
"j.j.j.j.j.j.j.j.j.j.j.j.j.j.j.j.j.j.+ 1 #     X X X j.X . j.. . O > O o . # A w.u 2 % % 1 g 5.q. .> ; + o X . . . X X X j.j.j.j.k.k.k.k.k.k.k.k.",
"j.j.j.j.j.j.j.j.j.j.j.j.j.j.j.j.j.j.j.6 2 O X     k.j.  . . . X # O . . $ > c 6 # O o $ O # 1 A 1 # + X . . j.j.j.j.j.j.j.j.j.j.k.k.k.k.k.k.k.k.",
"j.j.j.j.j.j.j.j.j.j.j.j.j.j.j.j.j.j.j., u 9 : O   X X   j.j.k.o # X . X 4 l 9 # .   . X X X o + + o j.. . j.j.j.j.j.j.j.j.j.j.j.k.k.k.k.k.k.k.k.",
"j.j.j.j.j.j.j.j.j.j.j.j.j.j.j.j.j.j.j.k.& , , & X X   X X k.o X X X X o < 6 + . . . j.j.. . . . . j.j.j.j.j.j.j.j.j.j.j.j.j.j.j.k.k.k.k.k.k.k.k.",
"j.j.j.j.j.j.j.j.j.j.j.j.j.j.j.j.j.j.j.j.j.X X o . . . . o % + . O , , < 6 , . k.k.k.k.k.k.k.. . . k.k.k.k.k.k.k.k.k.k.k.k.k.k.k.k.k.k.k.k.k.k.k.",
"j.j.j.j.j.j.j.j.j.j.j.j.j.j.j.j.j.j.j.j.j.j.j.. . . . . + , o . . O O o O O . k.k.k.k.k.k.k.k.k.k.k.k.k.k.k.k.k.k.k.k.k.k.k.k.k.k.k.k.k.k.k.k.k.",
"j.j.j.j.j.j.j.j.j.j.j.j.j.j.j.j.j.j.j.j.j.j.j.j.j.j.. j.j.. . . . . . .   . k.k.k.k.k.k.k.k.k.k.k.k.k.k.k.k.k.k.k.k.k.k.k.k.k.k.k.k.k.k.k.k.k.k.",
"j.j.j.j.j.j.j.j.j.j.j.j.j.j.j.j.j.j.j.j.j.j.j.j.j.j.j.j.j.j.j.j.j.j.j.j.k.k.k.k.k.k.k.k.k.k.k.k.k.k.k.k.k.k.k.k.k.k.k.k.k.k.k.k.k.k.k.k.k.k.k.k.",
"j.j.j.j.j.j.j.j.j.j.j.j.j.j.j.j.j.j.j.j.j.j.j.j.j.j.j.j.j.j.j.j.j.j.j.j.j.j.j.j.k.k.k.k.k.k.k.k.k.k.k.k.k.k.k.k.k.k.k.k.k.k.k.k.k.k.k.k.k.k.k.k.",
"j.j.j.j.j.j.j.j.j.j.j.j.j.j.j.j.j.j.j.j.j.j.j.j.j.j.j.j.j.j.j.j.j.j.j.j.j.j.j.j.k.k.k.k.k.k.k.k.k.k.k.k.k.k.k.k.k.k.k.k.k.k.k.k.k.k.k.k.k.k.k.k.",
"j.j.j.j.j.j.j.j.j.j.j.j.j.j.j.j.j.j.j.j.j.j.j.j.j.j.j.j.j.j.j.j.j.j.j.j.j.j.j.j.k.k.k.k.k.k.k.k.k.k.k.k.k.k.k.k.k.k.k.k.k.k.k.k.k.k.k.k.k.k.k.k.",
"j.j.j.j.j.j.j.j.j.j.j.j.j.j.j.j.j.j.j.j.j.j.j.j.j.j.j.j.j.j.j.j.j.j.j.j.j.j.j.j.k.k.k.k.k.k.k.k.k.k.k.k.k.k.k.k.k.k.k.k.k.k.k.k.k.k.k.k.k.k.k.k."
};
