/* XPM */
static char *cG5nYWFhLmNvbS04OTMwMSslMjgxJTI5[] = {
/* columns rows colors chars-per-pixel */
"72 72 227 2 ",
"   c #020202",
".  c #0E1217",
"X  c #151518",
"o  c #0A0C11",
"O  c #1A1B27",
"+  c #1E212D",
"@  c #252629",
"#  c #2B2C34",
"$  c #342E33",
"%  c #2F3239",
"&  c #34353B",
"*  c #2D3646",
"=  c #393A46",
"-  c #3D4049",
";  c #44454A",
":  c #484A55",
">  c #544D56",
",  c #555257",
"<  c #4F5059",
"1  c #585B65",
"2  c #565C74",
"3  c #4A5164",
"4  c #625E67",
"5  c #725F6A",
"6  c #596578",
"7  c #5D656F",
"8  c #65666A",
"9  c #666A72",
"0  c #6C6D73",
"q  c #636C7B",
"w  c #666978",
"e  c #756C76",
"r  c #69717C",
"t  c #72757C",
"y  c #77767B",
"u  c #71656A",
"i  c #81665F",
"p  c #827279",
"a  c #987F7E",
"s  c #92807E",
"d  c #5A6984",
"f  c #5C728D",
"g  c #506E91",
"h  c #626E82",
"j  c #6C7484",
"k  c #66758A",
"l  c #7B7C84",
"z  c #757987",
"x  c #667B97",
"c  c #757D93",
"v  c #847D86",
"b  c #7B828D",
"n  c #758295",
"m  c #7C8593",
"M  c #798899",
"N  c #6C85A5",
"B  c #7D8EA3",
"V  c #788AA5",
"C  c #6A8DB1",
"Z  c #7A99B9",
"A  c #7192B3",
"S  c #82848B",
"D  c #87878D",
"F  c #848593",
"G  c #848A95",
"H  c #838C9B",
"J  c #898A97",
"K  c #8C929C",
"L  c #8A9197",
"P  c #93949A",
"I  c #9B959D",
"U  c #97949A",
"Y  c #93878D",
"T  c #A99B9C",
"R  c #B4A19F",
"E  c #858FA1",
"W  c #8C93A3",
"Q  c #8D9BAC",
"!  c #8795A7",
"~  c #9195A3",
"^  c #959AA4",
"/  c #9B9CA4",
"(  c #949CAC",
")  c #999CAC",
"_  c #899AB4",
"`  c #929CB6",
"'  c #A29EAD",
"]  c #A69DA5",
"[  c #A39FB0",
"{  c #96A2AE",
"}  c #9AA2AC",
"|  c #9EA0A6",
" . c #8DA4B9",
".. c #95A4B5",
"X. c #9CA4B5",
"o. c #96A4B9",
"O. c #9BA5BB",
"+. c #9BAABB",
"@. c #98A9B7",
"#. c #A3A4AC",
"$. c #ACAAAE",
"%. c #AAA3A7",
"&. c #B2A3A3",
"*. c #B9ABA9",
"=. c #A4A4B3",
"-. c #A9A4B4",
";. c #A4AAB4",
":. c #ABACB4",
">. c #A4ACBB",
",. c #AAADBB",
"<. c #A3A6BC",
"1. c #B2ACB8",
"2. c #AFB0B5",
"3. c #A4B1BD",
"4. c #ADB2BC",
"5. c #B1B2B7",
"6. c #B3B5BB",
"7. c #BAB4BC",
"8. c #B6B9BE",
"9. c #BDB4B4",
"0. c #BFB0AC",
"q. c #C0ADA8",
"w. c #C2B0AA",
"e. c #C3BABB",
"r. c #89AAC7",
"t. c #9AACC3",
"y. c #96ABC5",
"u. c #9CB3C6",
"i. c #9CB5CB",
"p. c #97B5CB",
"a. c #ABAFC1",
"s. c #A1ADC2",
"d. c #A5B2C3",
"f. c #ACB4C3",
"g. c #ABB9C6",
"h. c #A4B6C9",
"j. c #ABB6C9",
"k. c #A5BACE",
"l. c #ADBBCB",
"z. c #B2B5C3",
"x. c #B4BAC4",
"c. c #BBBCC3",
"v. c #B4BCCB",
"b. c #BABDCB",
"n. c #B9B6C5",
"m. c #ACBED0",
"M. c #A4BCD2",
"N. c #B3BFD1",
"B. c #BBACC2",
"V. c #C3BEC3",
"C. c #C3BDCA",
"Z. c #C2B5C6",
"A. c #CEB8CC",
"S. c #AFC3CC",
"D. c #BEC0C6",
"F. c #B4C2CC",
"G. c #BCC3CC",
"H. c #ACC2D4",
"J. c #A7C0D4",
"K. c #B4C4D3",
"L. c #BCC5D2",
"P. c #B5C9D5",
"I. c #BCCAD4",
"U. c #B2C6D9",
"Y. c #B6CAD9",
"T. c #BDCCDA",
"R. c #BDD2DC",
"E. c #C2C1C4",
"W. c #C3C5CC",
"Q. c #C9C3CB",
"!. c #C6C8CE",
"~. c #CACACE",
"^. c #CAC3C7",
"/. c #C2C6D2",
"(. c #CBC3D1",
"). c #C4CBD4",
"_. c #CBCDD4",
"`. c #C4CED9",
"'. c #CBCDDA",
"]. c #D4CDDB",
"[. c #D5C9D6",
"{. c #CDD1D6",
"}. c #C4D2DC",
"|. c #CBD3DC",
" X c #C8D5D9",
".X c #D3D3D7",
"XX c #D3D4DC",
"oX c #DBD4DE",
"OX c #D5D9DE",
"+X c #DADADD",
"@X c #DAD2D5",
"#X c #D2CACA",
"$X c #E2D3DF",
"%X c #E0CFDD",
"&X c #C4D5E1",
"*X c #CBD6E1",
"=X c #CCDAE3",
"-X c #C2DBE0",
";X c #D4D6E1",
":X c #DBD6E1",
">X c #D3DBE3",
",X c #DBDCE3",
"<X c #E0DCE3",
"1X c #E5D7E2",
"2X c #D4E2E6",
"3X c #DCE1E6",
"4X c #D6E3E9",
"5X c #DCE4EB",
"6X c #DFE9EC",
"7X c #DFE9F1",
"8X c #E2E2E6",
"9X c #E0E6EC",
"0X c #E3E5EA",
"qX c #E5E9ED",
"wX c #EBECEE",
"eX c #EAE5E8",
"rX c #ECEDF1",
"tX c #E2EBF2",
"yX c #ECF1F5",
"uX c #F2F3F5",
"iX c #F2F5F8",
"pX c #F7FAFC",
"aX c #FCFDFE",
"sX c #F8F8F7",
"dX c #F0EFF0",
"fX c None",
"gX c black",
/* pixels */
"fXfXfXfXfXfXfXfXfXfXfXfXfXfXfXfXfXfXfXfXfXfXfXfXfXfXfXfXfXfXfXfXfXfXfXfXfXfXfXfXfXfXfXfXfXfXfXfXfXfXfXfXfXfXfXfXfXfXfXfXfXfXfXfXfXfXfXfXfXfXfXfX",
"fXfXfXfXfXfXfXfXfXfXfXfXfXfXfXfXfXfXfXfXfXfXfXfXfXfXfXfXfXfXfXfXfXfXfXfXfXfXfXfXfXfXfXfXfXfXfXfXfXfXfXfXfXfXfXfXfXfXfXfXfXfXfXfXfXfXfXfXfXfXfXfX",
"fXfXfXfXfXfXfXfXfXfXfXfXfXfXfXfXfXfXfXfXfXfXfXfXfXfXfXfXfXfXfXfXfXfXfXfXfXfXfXfXfXfXfXfXfXfXfXfXfXfXfXfXfXfXfXfXfXfXfXfXfXfXfXfXfXfXfXfXfXfXfXfX",
"fXfXfXfXfXfXfXfXfXfXfXfXfXfXfXfXfXfXfXfXfXfXfXfXfXfXfXfXfXfXfXfXfXfXfXfXfXfXfXfXfXfXfXfXfXfXfXfXfXfXfXfXfXfXfXfXfXfXfXfXfXfXfXfXfXfXfXfXfXfXfXfX",
"fXfXfXfXfXfXfXfXfXfXfXfXfXfXfXfXfXfXfXfXfXfXfXfXfXfXfXfXfXfXfXfXfXfXfXfXfXfXfXfXfXfXfXfXfXfXfXfXfXfXfXfXfXfXfXfXfXfXfXfXfXfXfXfXfXfXfXfXfXfXfXfX",
"fXfXfXfXfXfXfXfXfXfXfXfXfXfXfXfXfXfXfXfXfXfXfXfXfXfXfXfXfXfXfXfXfXfXfXfXfXfXfXfXfXfXfXfXfXfXfXfXfXfXfXfXfXfXfXfXfXfXfXfXfXfXfXfXfXfXfXfXfXfXfXfX",
"fXfXfXfXfXfXfXfXfXfXfXfXfXfXfXfXfXfXfXfXfXfXfXfXfXfXfXfXfXfXfXfXfXfXfXfXfXfXfXfXfXfXfXfXfXfXfXfXfXfXfXfXfXfXfXfXfXfXfXfXfXfXfXfXfXfXfXfXfXfXfXfX",
"fXfXfXfXfXfXfXfXfXfXfXfXfXfXfXfXfXfXfXfXfXfXfXfXfXfXfXfXfXfXfXfXfXfXfXfXfXfXfXfXfXfXfXfXfXfXfXfXfXfXfXfXfXfXfXfXfXfXfXfXfXfXfXfXfXfXfXfXfXfXfXfX",
"fXfXfXfXfXfXfXfXfXfXfXfXfXfXfXfXfXfXfXfXfXfXfXfXfXfXfXfXfX>X*X*X=X=X=X=X=X=X5X7X4X7X7XgXfXfXfXfXfXfXfXfXgXgXgXgXfXfXfXfXfXfXfXfXfXfXfXfXfXfXfXfX",
"fXfXfXfXfXfXfXfXfXfXfXfXfXfXfXfXfXfXfXfXfXfX|.'.`.L.l.t.u.`.*X=X=X*X=X=X=X=X>X5X7X7X7X&XJ.i.H.R.}.}.fXfXgXgXgXgXfXfXfXfXfXfXfXfXfXfXfXfXfXfXfXfX",
"fXfXfXfXfXfXfXfXfXfXfXfXfXfXfXfXfXfXfXG.f.v./.|.L.l...Q E @.}.,X5X5X5X9X9X9X9X9XtX>XK.v.b.j.b._.}.}.I.I.P.fXgXgXfXfXfXfXfXfXfXfXfXfXfXfXfXfXfXfX",
"fXfXfXfXfXfXfXfXfXfXfXfXfXfXfXfXfXF.l.4.v.G.f.+.>.v.G./.L.L.K.>XrX9X9X9X9X9X9XtXqX;X'.'.).G.v.a.z.W.|.3XG...Q gXfXfXfXfXfXfXfXfXfXfXfXfXfXfXfXfX",
"fXfXfXfXfXfXfXfXfXfXfXfXfXfXfXfX(.l. X+.k >.b.X.z.{.0X8X3X XI.|.>X&X`.`.`.`.>X,X3X5XqX,X,X,X:X;X.X;X>XqX X!.{ K fXfXfXfXfXfXfXfXfXfXfXfXfXfXfXfX",
"fXfXfXfXfXfXfXfXfXfXfXfXfXfXfXoX|.=XP.f * G G.XX8X].7.#.e.9.4.:.f.d.v.G.L.{.eX8X+X@X#Xe.7.c.Z.' 1 E j.8XyXOX X>.! fXfXfXfXfXfXfXfXfXfXfXfXfXfXfX",
"fXfXfXfXfXfXfXfXfXfXfXfXfXfX:X|.K.u.u.q & P z.E.eXaX<X*.0.q.0.0.q.w.*.#.=.-.*.&.&.&.R R &.7.Z.[ 6 Q +.>.S.8.{.|.F.g.fXfXfXfXfXfXfXfXfXfXfXfXfXfX",
"fXfXfXfXfXfXfXfXfXfXfXfXfX,X`.l...( ( , $ ) ;.;.^.eXaX#XR 0.q.0.w.*.-.[ [ ' ' %.&.&.] &.*.b.z.s.` o.@.d.4.9 = t F.`./.fXfXfXfXfXfXfXfXfXfXfXfXfX",
"fXfXfXfXfXfXfXfXfXfXfXfX:X( >.:.b ;.:.4 ; ^ ) ..D. XqX+Xw.w.0.0.1.[ [ [ [ [ ' ' / ] &.*.e.).l.u.@...+.f.S.D X S 8.8. X3.gXgXgXgXfXfXfXfXfXfXfXfX",
"fXfXfXfXfXfXfXfXfXfXfXeXG./ S , y 5.E.8 , ~ W ..3.OX2X.X0.&.2.g.=.[ =.[ [ [ [ [ W W / &.e.`.I.f.o.o.+.d.3.# , !.8.| b 6...gXgXgXfXfXfXfXfXfXfXfX",
"fXfXfXfXfXfXfXfXfXfX<X'.x.6.l 4 %.Y T 0 r H ! ..+. X2XR.^ q _ 3.=.=.[ =.-.-.=.=.) B 6 4.F.l.L.d...o.+.d.H & = F c.#.P | ).! gXgXfXfXfXfXfXfXfXfX",
"fXfXfXfXfXfXfXfXfX,XG.) ;.D.$./ U u #.P b H W ..+.F.G.{ G m  .+.=.-.,.,.,.,.,.,...c h {.>Xv.v.+...@.+.3.{ 2.l O D } / 2.G.x.W gXfXfXfXfXfXfXfXfX",
"gXgXgXgXfXfXfXfXXXf.:.D U 8.$.u , U 8.9 m H W ..d.+.;.r K v.d.O.<.,.,.a.a.a.,.1.<.B ).,X`.`.G.Q ..@.+.3.f.W.(.: O S c.#.G.`.{.4.fXfXfXfXfXfXfXfX",
"gXgXgXgXfXfXfXXX1.~ 1.~ L 2.s u F %.= 7 ^ H ! >.I.+.3.b ~ F.l.d.,.a.a.a.a.a.a.a.f.l.|.>X|.OXx.H @...+.d.3Xg.D.) + X y / x.I.;X9X0XfXfXfXfXfXfXfX",
"gXgXgXgXgXgX'./.W 7.D.:.:.p u R P @ +  X4.H +.K.R.f.F. .D.|.}.l.>.a.z.a.f.f.f.f.X.l._ y.N.f.^ ) I.S.3.l.sX>XS T K # X 0 :.).`.x.qX!.fXfXfXfXfXfX",
"gXgXgXgXgX'./.v.4.Q.6.x.!.I $.Y .   8 iXg.@.i.p.H.K.i.y.;.8X3X^ X.a.f.z.f.f.z.z.c c C Z t.d.W.L._.4X X XaXaX) # 8 ~ 9 #.#.3.k.>.c.dXC.fXfXfXfXfX",
"gXgXgXgX;X].b.b._.7.v V.wXD.W.P   X #XdXb.t.t.i.K.qXtXj.6 G.qX6.) f.f.z.j.z.z.v.1 6 r.y.}.T.9X|.R.6X4X6XwXsX3Xn = ; C.Z.n.) F.'.{.rXrXC.fXfXfXfX",
"gXgXgX:X].C.=.C./.n.] $.2.U {.@X& 8 eX@Xb.y.` i.>XpXaXpX4.M +X0XL.j.z.v.v.v.v.a.& d H.`.,X=XiX9XI.4X-X2X2X2XI. .1 X ` _ ) W b.>X|. XdX<X7.fXfXfX",
"gXgXgX[ 1.=.v.>./ 7.:.8   X 1 E.U l 9.~.b.N.` k.yXsXpXaXaXXX).9X;Xl.v.v.b.N.N.~ O c |.,X>X=X5X*XI.2X2X*X=X=Xg.n K 2 x g x m G.yX3XW.OX3X7.fXfXfX",
"gXgXgX5 e G f.1 = !.^.-     o 9 8 : ;. X<.j.` U.pXaXaXaXaXaXuX6X,Xb.l.v.b.b.b.j . G ,X,X>Xv.|.R.P.=X2X}.R.&X}.g.<.w 2 f N m /.aXsX|.`.P.k.z.fXfX",
"gXgXgXJ j q g.0 - :X:.@     > n.} m g.}.S.d.` >XaXaXaXaXpXpXaXyX9X).l.v.v.b.l.: * C.,X3X=XV ..H.B 3.4X-XP.#.G.T.L.' 9 = g S.tXaXsX|.d.3.l.f.fXfX",
"gXgXgXf.j h OX4.l [.) ; . , 1.oXXX_.P.S.4.f.<.yXaXaXaXaXaXpXaXpXrX'.l.v.v.K.O.% / ,X,X3X=X_ f d 2 M 2X=X;.X.*XH.+.XX1.1 B G.XX3XOX4.k Q G.fXfXfX",
"gXgXgXgXG z K I.c.v j } D #.1.A._.].L.8.W.x.f.aXaXaXaXaXaXpXaXaXpX5XN.l.l.N.M t :X,X,X,X`.p.A g 6 k  XL.^ L.>X&XU.).<Xc.D.OXI.&XF.b h } ).fXfXfX",
"gXgXgXgXW./.{ W z # : 0 | K ,.Z.(._.n.4._.L.'.aXaXaXaXaXaXpXaXpXpXiXL.j.l.j.K Q.,X:X:X>XU.r.p.C N N ..5.} `.|.>X,X;X8XXX6./.f.H.`.l.x.D.fXfXfXfX",
"fXfXfXfXfX|.|.L.x.4.6.l l W d.v.(._.6.).|.XXdXaXaXaXaXaXaXaXaXaXaXaX5Xl.j.m.).1X1X%X:X:XU.r.r.Z r.r.Z T.6.).`.>XuX5X.X.XW.g.8.).OX0X+XfXfXfXfXfX",
"fXfXfXfXfXfXOX&XY.K._.D.4.+.d.b._.).x.,._.oXpXaXaXaXaXaXaXaXaXaXaXaXpX*Xj./.$XoX].].].*XU.r.Z A C r.V N.rXXXF.3XdX>X).).D.{.).F.,X3XfXfXfXfXfXfX",
"fXfXfXfXfXfXfX`.H.M.F.W.;X;XXXG.n.4.;.} J D.wXuXaXaXaXaXaXaXaXaXaXaXaXsX|.:X%X[.A.].'.'.M.r.C x _ m.s.>XsX3Xx.L._.d.4.{.+X.X}.v._.fXfXfXfXfXfXfX",
"fXfXfXfXfXfXfXfX}.}.R.4.W.OX3X{.W.l.+.+.t I ^._.!.+X.X,XsXrX9X>X+XsXaXsXuX,Xb.A.z.l.n.b.U.U.k.O.X.W.XX6.|.T.m.t.F.6.c.XX{.I.I...fXfXfXfXfXfXfXfX",
"fXfXfXfXfXfXfXfXfXf.}.G.} .X3X8XwX`.P.>X:X/.Q.E.%..X8X0XyXL.H.j.a.U.).f.} >.! ,.>.h.l.qX>X<XE.~ H F O._ A V B ! v._._.W.!.`.K.o.fXfXfXfXfXfXfXfX",
"fXfXfXfXfXfXfXfXfXfXW }.F.).W.{.8X>X*X;X=X,XoX7.e.6.E.0XrX`.b.j.m.Y.T.U.h.y.y.O.<.<.j.0X+X^.' ` s.t.j.N.m.t. .Z l.XXc.8.W.W.b.fXfXfXfXfXfXfXfXfX",
"fXfXfXfXfXfXfXfXfXfXfX~ /.|.v.G.XX X}.*X>X>X>X|.e.D / 0X5Xb.m.H.=X5X5X>XU.k.i.y.p.y.s.5X{.z.f.u.t.k.'.;X;X'.`.`.`.!.6.x.W.6.fXfXfXfXfXfXfXfXfXfX",
"fXfXfXfXfXfXfXfXfXfXfXj ) I.K.F.{.L.R.-X-X>X,XL.j.-._.3X>Xl.U.>X4X=X=X`.z.|.&X`.U.m.i./.a.s.h.R.=X'.].'.`.Y.Y.T.W.G o.H.( fXfXfXfXfXfXfXfXfXfXfX",
"fXfXfXfXfXfXfXfXfXfXfXfXK X.F.m :. XR.R.R.}.2X|.M.d.3.$.} 3XqX5X=X=X4XT.p.Y.*X=X=X>X*X).G.G.). X*X].*X|.}.R.F.F.m 6  .{ fXfXfXfXfXfXfXfXfXfXfXfX",
"fXfXfXfXfXfXfXfXfXfXfXfXfX^ @.M < 3.P.l.p.u.P.&X Xf..X8X+XwXdXuXyX>X>X&XK.}.R.&X&X&X*X|.D.2.2. X=X*X|.R.P.8.3.M 6 B Q fXfXfXfXfXfXfXfXfXfXfXfXfX",
"fXfXfXfXfXfXfXfXfXfXfXfXfXfX! o.7 <  . .d 6 B u.Y.3X8X:.2.I.{.OXqX5X&X=X2X>X=X=X|.}.5X5.0 ^ _.{.b.v.x.F.3.) P e k H fXfXfXfXfXfXfXfXfXfXfXfXfXfX",
"fXfXfXfXfXfXfXfXfXfXfXfXfXfXfXL.{ - 4 G.} 2 2 h M {.[.#./ 3.f.k.T.,Xz.Y.=X3XP._.OXQ._.U S c.,Xz.E +.`.v.>.$.Y G ! fXfXfXfXfXfXfXfXfXfXfXfXfXfXfX",
"fXfXfXfXfXfXfXfXfXfXfXfXfXfXfXfX`.m & 0 8X{.;.K j / rXrXqX8X.X).|.|.x.d.|.b.x.OXOX!.D.{.5XwXwXx./.|.D./ #., 8 ( fXfXfXfXfXfXfXfXfXfXfXfXfXfXfXfX",
"fXfXfXfXfXfXfXfXfXfXfXfXfXfXfXfXfX/.L < y XX).XX{.!.0XrX,X3XwXrX5X9XK j =.F 6.OX#.0 S {.,XwXqX,Xb.:.z 9 < 8 ~ F.fXfXfXfXfXfXfXfXfXfXfXfXfXfXfXfX",
"fXfXfXfXfXfXfXfXfXfXfXfXfXfXfXfXfXfX).:.y b 4.{.8X3X5.3X0X0X+XqX:X_.S 8 -.*.E.P ; @ < XX>X!.0X8.K ;.K t I 4.L.fXfXfXfXfXfXfXfXfXfXfXfXfXfXfXfXfX",
"fXfXfXfXfXfXfXfXfXfXfXfXfXfXfXfXfXfXfXg.x.8.).}.x.$.4.3.0X<X/ Q.A.' :.;.x.E.I % - : 3.wX}.v.3X;.t 1 D.XXf.x.fXfXfXfXfXfXfXfXfXfXfXfXfXfXfXfXfXfX",
"fXfXfXfXfXfXfXfXfXfXfXfXfXfXfXfXfXfXfX4.4.5.W. XL.D L G.0X8./ .XV.;.) ) ' =.X.$ 7 +.4X0XR.3X3XL ; | 8X{.f.fXfXfXfXfXfXfXfXfXfXfXfXfXfXfXfXfXfXfX",
"fXfXfXfXfXfXfXfXfXfXfXfXfXfXfXfXfXfXfXfX;.P Y 8.D. XW.W.qX_.+X!.D.d.B _ o.y.k.z ! &XqX3Xx.W.#.8.W.V.2.$.fXfXfXfXfXfXfXfXfXfXfXfXfXfXfXfXfXfXfXfX",
"fXfXfXfXfXfXfXfXfXfXfXfXfXfXfXfXfXfXfXfXfX) L t 2.D.~.L 6.XXXXG.}.>.o.y.r.p.s.'.XX8X8XqX_.2.8.0XQ.E.5.fXfXfXfXfXfXfXfXfXfXfXfXfXfXfXfXfXfXfXfXfX",
"fXfXfXfXfXfXfXfXfXfXfXfXfXfXfXfXfXfXfXfXfXfX;./ l 5.$.#.9 x.D.`.&XI.N.m.N.n.Z.A.1X'.L.OX~.D.).4.x.G.fXfXfXfXfXfXfXfXfXfXfXfXfXfXfXfXfXfXfXfXfXfX",
"fXfXfXfXfXfXfXfXfXfXfXfXfXfXfXfXfXfXfXfXfXfXfXg.$.2.4.#.y U _.`.}.&X=X|.>X>X:X:X[._..XG.G.!.8.D.OXfXfXfXfXfXfXfXfXfXfXfXfXfXfXfXfXfXfXfXfXfXfXfX",
"fXfXfXfXfXfXfXfXfXfXfXfXfXfXfXfXfXfXfXfXfXfXfXfXI.D.D.6.t t +X&X*X&XR.R.|.[.%X<X;XrX+XW.~.~.| 2.fXfXfXfXfXfXfXfXfXfXfXfXfXfXfXfXfXfXfXfXfXfXfXfX",
"fXfXfXfXfXfXfXfXfXfXfXfXfXfXfXfXfXfXfXfXfXfXfXfXgX3.W =.8.M {.;X X>XI.R.|.[.1X|.I.yXz.,.I.F.F.fXfXfXfXfXfXfXfXfXfXfXfXfXfXfXfXfXfXfXfXfXfXfXfXfX",
"fXfXfXfXfXfXfXfXfXfXfXfXfXfXfXfXfXfXfXfXfXfXfXfXgXgX+.z X.L.|.{.{.+X.. .O.,._.d.( {.L.k.F.P.fXfXfXfXfXfXfXfXfXfXfXfXfXfXfXfXfXfXfXfXfXfXfXfXfXfX",
"fXfXfXfXfXfXfXfXfXfXfXfXfXfXfXfXfXfXfXfXfXfXfXfXfXfXfXx.) ) L.L._..Xx.S z F :.v.s.L.S.S.@.fXfXfXfXfXfXfXfXfXfXfXfXfXfXfXfXfXfXfXfXfXfXfXfXfXfXfX",
"fXfXfXfXfXfXfXfXfXfXfXfXfXfXfXfXfXfXfXfXfXfXfXfXfXfXfXfXoXn.) X.r P v ~ / W l W 6.F.g._ fXfXfXfXfXfXfXfXfXfXfXfXfXfXfXfXfXfXfXfXfXfXfXfXfXfXfXfX",
"fXfXfXfXfXfXfXfXfXfXfXfXfXfXfXfXfXfXfXfXfXfXfXfXfXfXfXfXfX+X6.( M 6 3 z ) ;.n.oX`.g. .fXfXfXfXfXfXfXfXfXfXfXfXfXfXfXfXfXfXfXfXfXfXfXfXfXfXfXfXfX",
"fXfXfXfXfXfXfXfXfXfXfXfXfXfXfXfXfXfXfXfXfXfXfXfXfXfXfXfXfXfX.Xc.f.d.d.G.,X8X0X;XG.@.fXfXfXfXfXfXfXfXfXfXfXfXfXfXfXfXfXfXfXfXfXfXfXfXfXfXfXfXfXfX",
"fXfXfXfXfXfXfXfXfXfXfXfXfXfXfXfXfXfXfXfXfXfXfXfXfXfXfXfXfXfXfX.X).v.l.L.`.s.+.v.3.fXfXfXfXfXfXfXfXfXfXfXfXfXfXfXfXfXfXfXfXfXfXfXfXfXfXfXfXfXfXfX",
"fXfXfXfXfXfXfXfXfXfXfXfXfXfXfXfXfXfXfXfXfXfXfXfXfXfXfXfXfXfXfXfX>.) W w l -.X.` fXfXfXfXfXfXfXfXfXfXfXfXfXfXfXfXfXfXfXfXfXfXfXfXfXfXfXfXfXfXfXfX",
"fXfXfXfXfXfXfXfXfXfXfXfXfXfXfXfXfXfXfXfXfXfXfXfXfXfXfXfXfXfXfXfX>.! z e p p c fXfXfXfXfXfXfXfXfXfXfXfXfXfXfXfXfXfXfXfXfXfXfXfXfXfXfXfXfXfXfXfXfX",
"fXfXfXfXfXfXfXfXfXfXfXfXfXfXfXfXfXfXfXfXfXfXfXfXfXfXfXfXfXfXfXfXfXI.} p a I fXfXfXfXfXfXfXfXfXfXfXfXfXfXfXfXfXfXfXfXfXfXfXfXfXfXfXfXfXfXfXfXfXfX",
"fXfXfXfXfXfXfXfXfXfXfXfXfXfXfXfXfXfXfXfXfXfXfXfXfXfXfXfXfXfXfXfXfXfXG.Y v fXfXfXfXfXfXfXfXfXfXfXfXfXfXfXfXfXfXfXfXfXfXfXfXfXfXfXfXfXfXfXfXfXfXfX",
"fXfXfXfXfXfXfXfXfXfXfXfXfXfXfXfXfXfXfXfXfXfXfXfXfXfXfXfXfXfXfXfXfXfXfXfXfXfXfXfXfXfXfXfXfXfXfXfXfXfXfXfXfXfXfXfXfXfXfXfXfXfXfXfXfXfXfXfXfXfXfXfX",
"fXfXfXfXfXfXfXfXfXfXfXfXfXfXfXfXfXfXfXfXfXfXfXfXfXfXfXfXfXfXfXfXfXfXfXfXfXfXfXfXfXfXfXfXfXfXfXfXfXfXfXfXfXfXfXfXfXfXfXfXfXfXfXfXfXfXfXfXfXfXfXfX",
"fXfXfXfXfXfXfXfXfXfXfXfXfXfXfXfXfXfXfXfXfXfXfXfXfXfXfXfXfXfXfXfXfXfXfXfXfXfXfXfXfXfXfXfXfXfXfXfXfXfXfXfXfXfXfXfXfXfXfXfXfXfXfXfXfXfXfXfXfXfXfXfX",
"fXfXfXfXfXfXfXfXfXfXfXfXfXfXfXfXfXfXfXfXfXfXfXfXfXfXfXfXfXfXfXfXfXfXfXfXfXfXfXfXfXfXfXfXfXfXfXfXfXfXfXfXfXfXfXfXfXfXfXfXfXfXfXfXfXfXfXfXfXfXfXfX",
"fXfXfXfXfXfXfXfXfXfXfXfXfXfXfXfXfXfXfXfXfXfXfXfXfXfXfXfXfXfXfXfXfXfXfXfXfXfXfXfXfXfXfXfXfXfXfXfXfXfXfXfXfXfXfXfXfXfXfXfXfXfXfXfXfXfXfXfXfXfXfXfX",
"fXfXfXfXfXfXfXfXfXfXfXfXfXfXfXfXfXfXfXfXfXfXfXfXfXfXfXfXfXfXfXfXfXfXfXfXfXfXfXfXfXfXfXfXfXfXfXfXfXfXfXfXfXfXfXfXfXfXfXfXfXfXfXfXfXfXfXfXfXfXfXfX",
"fXfXfXfXfXfXfXfXfXfXfXfXfXfXfXfXfXfXfXfXfXfXfXfXfXfXfXfXfXfXfXfXfXfXfXfXfXfXfXfXfXfXfXfXfXfXfXfXfXfXfXfXfXfXfXfXfXfXfXfXfXfXfXfXfXfXfXfXfXfXfXfX"
};
