/* XPM */
static char *result[] = {
/* columns rows colors chars-per-pixel */
"64 64 244 2 ",
"   c #3D2819",
".  c #3A2B25",
"X  c #3A322C",
"o  c #3A3937",
"O  c #372C3A",
"+  c #431D12",
"@  c #48250E",
"#  c #442718",
"$  c #5B3414",
"%  c #552D0F",
"&  c #693A17",
"*  c #63340E",
"=  c #462727",
"-  c #443529",
";  c #543A29",
":  c #4A2638",
">  c #483938",
",  c #522E3A",
"<  c #653C2E",
"1  c #4A1D2A",
"2  c #3E4839",
"3  c #75461E",
"4  c #46443A",
"5  c #5A4534",
"6  c #774B29",
"7  c #754F33",
"8  c #373A45",
"9  c #373455",
"0  c #2E3671",
"q  c #4E2657",
"w  c #552857",
"e  c #493857",
"r  c #53375D",
"t  c #4B2E47",
"y  c #550772",
"u  c #572666",
"i  c #54306D",
"p  c #663474",
"a  c #691E6A",
"s  c #384547",
"d  c #384854",
"f  c #3B5858",
"g  c #2F5058",
"h  c #3D615A",
"j  c #3B4B68",
"k  c #385968",
"l  c #235578",
"z  c #385A76",
"x  c #254F6D",
"c  c #3A6669",
"v  c #35677B",
"b  c #3D7677",
"n  c #306773",
"m  c #17547C",
"M  c #4C4C4C",
"N  c #464545",
"B  c #584947",
"V  c #42534A",
"C  c #495855",
"Z  c #595858",
"A  c #554C53",
"S  c #665449",
"D  c #665858",
"F  c #6D4F4F",
"G  c #4E635A",
"H  c #766253",
"J  c #444664",
"K  c #51536F",
"L  c #694D6C",
"P  c #546E70",
"I  c #666666",
"U  c #676A6A",
"Y  c #766866",
"T  c #647171",
"R  c #797472",
"E  c #884C1C",
"W  c #98561B",
"Q  c #895728",
"!  c #865C35",
"~  c #985721",
"^  c #A65E23",
"/  c #966939",
"(  c #916637",
")  c #B86B27",
"_  c #AC6C2F",
"`  c #C5722B",
"'  c #C3722C",
"]  c #90674B",
"[  c #A67843",
"{  c #B67D41",
"}  c #835A72",
"|  c #8C7374",
" . c #85594D",
".. c #D08338",
"X. c #B9884B",
"o. c #B28071",
"O. c #C69354",
"+. c #D59C57",
"@. c #CE8E49",
"#. c #DBA25B",
"$. c #DEAC6A",
"%. c #E4AE65",
"&. c #E2AD6A",
"*. c #E5B472",
"=. c #2A3A97",
"-. c #37398D",
";. c #5D0B83",
":. c #68128F",
">. c #59238A",
",. c #5B2492",
"<. c #6B3091",
"1. c #771DA6",
"2. c #7E3AB9",
"3. c #7937AB",
"4. c #125898",
"5. c #1B4B89",
"6. c #28449B",
"7. c #2C528A",
"8. c #1A6B98",
"9. c #286789",
"0. c #377788",
"q. c #38759B",
"w. c #2D6F90",
"e. c #1757A9",
"r. c #1851A3",
"t. c #2B4FA3",
"y. c #136AAA",
"u. c #076BBA",
"i. c #0171BC",
"p. c #1574B4",
"a. c #1A7CBB",
"s. c #1976B7",
"d. c #0F68AD",
"f. c #2879A8",
"g. c #2868B5",
"h. c #336DAC",
"j. c #51568B",
"k. c #567A93",
"l. c #4C6E90",
"z. c #5154AE",
"x. c #724DAA",
"c. c #4B6BA9",
"v. c #4A70B5",
"b. c #785AAD",
"n. c #1865C2",
"m. c #0576C1",
"M. c #187EC1",
"N. c #0D6BC0",
"B. c #247DC3",
"V. c #3277C7",
"C. c #5072C6",
"Z. c #6C74C9",
"A. c #6F59C4",
"S. c #831AAC",
"D. c #803FB9",
"F. c #A7768C",
"G. c #844CB0",
"H. c #926598",
"J. c #8E4DC3",
"K. c #9466C8",
"L. c #A271CC",
"P. c #3B9B99",
"I. c #3B888E",
"U. c #1A80BE",
"Y. c #2588B9",
"T. c #3687B9",
"R. c #348EAF",
"E. c #3AA6AF",
"W. c #558C8D",
"Q. c #568DB0",
"!. c #4DAFAD",
"~. c #6B99A7",
"^. c #1D88C5",
"/. c #148DCA",
"(. c #288BC5",
"). c #3A86C7",
"_. c #2293CC",
"`. c #2A98C9",
"'. c #3B87D7",
"]. c #2296D1",
"[. c #239AD5",
"{. c #289EDB",
"}. c #3896DD",
"|. c #3796CB",
" X c #26A2DC",
".X c #35B0D1",
"XX c #3998E2",
"oX c #2B9FE1",
"OX c #29ACE3",
"+X c #25A6E1",
"@X c #39A5E3",
"#X c #35B7E5",
"$X c #2AB3E6",
"%X c #4587DC",
"&X c #508CCD",
"*X c #668CC7",
"=X c #5DAADB",
"-X c #4A8BE6",
";X c #5889E7",
":X c #4495E4",
">X c #5291E4",
",X c #6387E5",
"<X c #51B0ED",
"1X c #6FAEF3",
"2X c #66B2D6",
"3X c #31CCEC",
"4X c #2FEBF8",
"5X c #24D4E3",
"6X c #6DD3F9",
"7X c #76E7FB",
"8X c #6CE9F9",
"9X c #57CEDD",
"0X c #978987",
"qX c #988E8F",
"wX c #A99291",
"eX c #B4A39E",
"rX c #ABA19B",
"tX c #94ABB0",
"yX c #BAB8B9",
"uX c #B3ACAA",
"iX c #A58CA6",
"pX c #C0BFBF",
"aX c #C5C0BE",
"sX c #BFB9C3",
"dX c #999BD0",
"fX c #C4B8CC",
"gX c #8DEBF8",
"hX c #B0EEFB",
"jX c #A4C9DF",
"kX c #CAC9C9",
"lX c #D4D4D3",
"zX c #DCDCDD",
"xX c #DDD7D7",
"cX c #D6CAD1",
"vX c #E3D7DA",
"bX c #DCD6FD",
"nX c #E4D5ED",
"mX c #CEF3FD",
"MX c #ECEBEB",
"NX c #E7E4E6",
"BX c #F4F4F4",
"VX c #FAFAFA",
"CX c #EDEDF8",
"ZX c None",
/* pixels */
"ZXZXZXZXZXZXZXZXZXZXZXZXZXZXZXZXZXZXZXZXZXZXZXZXZXZXZXZXZXZXZXZXZXZXZXZXZXZXZXZXZXZXZXZXZXZXZXZXZXZXZXZXZXZXZXZXZXZXZXZXZXZXZXZX",
"ZXZXZXZXZXZXZXZXZXZXZXZXZXZXZXZXZXZXZXZXZXZXZXZXZXZXZXZXZXZXZXZXZXZXZXZXZXZXZXZXZXZXZXZXZXZXZXZXZXZXZXZXZXZXZXZXZXZXZXZXZXZXZXZX",
"ZXZXZXZXZXZXZXZXZXZXZXZXZXZXZXZXZXZXZXZXZXZXZXZXZXZXZXZXZXZXZXZXZXZXZX# ZXZXZXZXZXZXZXZXZXZXZXZXZXZXZXZXZXZXZXZXZXZXZXZXZXZXZXZX",
"ZXZXZXZXZXZXZXZXZXZXZXZXZXZXZXZXZXZXZXZXZXZXZXZXZXZXZXZXZXZXZXZXZXZXZXc v ZXZXZXZXZXZXZXZXZXZXZXZXZXZXZXZXZXZXZXZXZXZXZXZXZXZXZX",
"ZXZXZXZXZXZXZXZXZXZXZXZXZXZXZXZXZXZXZXZXZXZXZXZXZXZXZXZXZXZXZXZXZXZXZX9.^.X ZXZXZXZXZXZXZXZXZXZXZXZXZXZXZXZXZXZXZXZXZXZXZXZXZXZX",
"ZXZXZXZXZXZXZXZXZXZXZXZXZXZXZXZXZXZXZXZXZXZXZXZXZXZXZXZXZXZXZXZXZXZXZXv /.8 ZXZXZXZXZXZXZXZXZXZXZXZXZXZXZXZXZXZXZXZXZXZXZXZXZXZX",
"ZXZXZXZXZXZXZXZXZXZXZXZXZXZXZXZXZXZXZXZXZXZXZXZXZXZXZXZXZXZXZXZXZXZXZXw.i.g ZXZXZXZXZXZXZXZXZXZXZXZXZXZXZXZXZXZXZXZXZXZXZXZXZXZX",
"ZXZXZXZXZXZXZXZXZXZXZXZXZXZXZXZXZXZXZXZXZXZXZXZXZXZXZXZXZXZXZXZXZXZXZXw.i.x ZXZXZXZXZXZXZXZXZXZXZXZXZXZXZXZXZXZXZXZXZXZXZXZXZXZX",
"ZXZXZXZXZXZXZXZXZXZXZXZXZXZXZXZXZXZXZXZXZXZXZXZXZXZXZXZXZXZXZXZXZXZX= q.i.m ZXZXZXZXZXZXZXZXZXZXZXZXZXZXZXZXZXZXZXZXZXZXZXZXZXZX",
"ZXZXZXZXZXZXZXZXZXZXZXZXZXZXZXZXZXZXZXZXZXZXZXZXZXZXZXZXZXZXZXZXZXZX= R.i.4.  ZXZXZXZXZXZXZXZXZXZXZXZXZXZXZXZXZXZXZXZXZXZXZXZXZX",
"ZXZXZXZXZXZXZXZXZXZXZXZXZXZXZXZXZXZXZXZXZXZXZXZXZXZXZXZXZXZXZXZXZXZX- R.m.d.O ZXZXZXZXZXZXZXZXZXZXZXZXZXZXZXZXZXZXZXZXZXZXZXZXZX",
"ZXZXZXZXZXZXZXZXZXZXZXZXZXZXZXZXZXZXZXZXZXZXZXZXZXZXZXZXZXZXZXZXZXZXO Q.m.i.x + ZXZXZXZXZXZXZXZXZXZXZXZXZXZXZXZXZXZXZXZXZXZXZXZX",
"ZXZXZXZXZXZXZXZXZXZXZXZXZXZXZXZXZXZXZXZXZXZXZXZXZXZXZXZXZXZXZXZXZXZX8 ).a.i.u.9 # ZXZXZXZXZXZXZXZXZXZXZXZXZXZXZXZXZXZXZXZXZXZXZX",
"ZXZXZXZXZXZXZXZXZXZXZXZXZXZXZXZXZXZXZXZXZXZXZXZXZXZXZXZXZXZXZXZXZXZX8 ).M.i.m.r.0   ZXZXZXZXZXZXZXZXZXZXZXZXZXZXZXZXZXZXZXZXZXZX",
"ZXZXZXZXZXZXZXZXZXZXZXZXZXZXZXZXbXbXbXZXZXZXZXZXZXZXZXZXZXZXZXZXZXZXe ).^.i.i.r.-.j . ZXZXZXZXZXZXZXZXZXZXZXZXZXZXZXZXZXZXZXZXZX",
"ZXZXZXZXZXZXZXZXZXZXZXZXZXZXZXZXbXCXbXZXZXZXZXZXZXZXZXZXZXZXZXZXZXZXe C.M.i.i.r.-.=.z = ZXZXZXZXZXZXZXZXZXZXZXZXZXZXZXZXZXZXZXZX",
"ZXZXZXZXZXZXZXZXZXZXZXZXZXZXZXZXZXZXZXZXZXZXZXZXZXZXZXZXZXZXZXZXZXZXe V.p.u.N.n.r.=.t.z X ZXZXZXZXZXZXZXZXZXZXZXZXZXZXZXZXZXZXZX",
"ZXZXZXZXZXZXZXZXZXZXZXZXZXZXZXZXZXZXZXZXZXZXZXZXZXZXZXZXZXZXZXZXZXZX8 j.f.u.u.m.i.u.=.h.b - ZXZXZXZXZXZXZXZXZXZXZXZXZXZXZXZXZXZX",
"ZXZXZXZXZXZXZXZXZXZXZXZXZXhX8XZXZXZXZXZXZXZXZXZXZXZXZXZXZXZXZXZXo v R..X X[.N.N.u.u.e.=.T.0.ZXZXZXZXZXZXZXZXZXZXZXZXZXZXZXZXZXZX",
"ZXZXZXZXZXZXZXZXZXZXZXZXgXmX8X8XZXZXZXZXZXZXZXZXZXZXZXZXZXZX2 v |.<X$XOX@XXXV.n.n.N.u.=.6..XC ZXZXZXZXZXZXZXZXZXZXZXZXZXZXZXZXZX",
"ZXZXZXZXZXZXZXZXZXZXZX8XhXmX7X6X8X6XZXZXZXZXZXZXZXZXZXZXZXZXq.=X9X$XOXXX;X-XV.n.N.N.i.e.=.V.I.ZXZXZXZXZXZXZXZXZXZXZXZXZXZXZXZXZX",
"ZXZXZXZXZXZXZXZXZXZX4X8XmXVXgX8X7X6X6XZXZXZXZXZXZXZXZXZXZX1 K k.R.`.:X;X;X;X-XV.n.N.u.u.=.6.c # ZXZXZXZXZXZXZXZXZXZXZXZXZXZXZXZX",
"ZXZXZXZXZXZXZXZXZXZX4XgXmXCXmXgX6X1X<XZXZXZXZX4 4 C K 0.V p K.H.L J K j.l.v.C.g.e.u.d.5.9 : W.V ZXZXZXZXZXZXZXZXZXZXZXZXZXZXZXZX",
"ZXZXZXZXZXZXZXZXZXZX5X4XgXmXmX<X1X1XZXZX; Y ~.~.&X`._.[.J G.L.L.J.2.S.<.<.p i r t O 9 q q y |.c ZXZXZXZXZXZXZXZXZXZXZXZXZXZXZXZX",
"ZXZXZXZXZXZXZXZXZXZXZX5X8XhXhX6X1X<XZXD tXjX=X[._.].].Y.r L.L.G.D.2.D.2.2.<.p w w u ,.1.;.y &Xb > o ZXZXZXZXZXZXZXZXZXZXZXZXZXZX",
"ZXZXZXZXZXZXZXZXCXZXZXZX3XgXhX1X1Xr ; tXjX2X]._._.].[.q.p dXL.D.3.1.p i w w u >.,.,.1.S.;.y A.P.0.`.R.v f X ZXZXZXZXZXZXZXZXZXZX",
"ZXZXZXZXZXZXZXZXZXZXZX1 J 2XjX=Xc.q : tXjX X^._._.].[.n r H.p u w q u y >.,.,.,.1.1.S.S.:.:.A.!.0.+X$XOXR.. ZXZXZXZXZXZXZXZXZXZX",
"ZXZXZXZXZXZXZXZXZX# : q r r K L p a u F dX|./.^._.].[.f.N = : q u >.>.>.,.,.1.1.1.1.S.S.;.y <.l.n  X X Xw.c 0.P.P.2 ZXZXZXZXZXZX",
"ZXZXZXZXZXZXZXZXZXZX, k.Q.b.G.G.J.J.a = Z Q._._.].].[.[.[.Y.q.9.j J 9 i q w u u u a u r e 9 z w.^. X+XOX X$X$X4X4XP.ZXZXZXZXZXZX",
"ZXZXZXZXZXZXZXZXZXZXZXA Q.=Xb.b.G.>.t ZXZXo v Y.].[.[.[.{. X{.@XXX}.'.'.V.v.v.c.f.a.Y.(._.[.[. X+X+XOXOXOXOXOX3X4XE.ZXZXZXZXZXZX",
"ZXZXZXZXZXZXZXZXZXZXZXZXM P K i w - ZXZXZXZXZXo n f.^.[. X X X}.XXXXXX-X-X-X-XC.-XoX+X+X+X+X+XOX+X$XOXOX.X X5X4X9Xf ZXZXZXZXZXZX",
"ZXZXZXZXZXZXZXZXZXZXZXZXZXZXW.*Xx.> ZXZXZXZXZXZXs g d f 0.f.Y.[.{.XX:X:X-X-X-X;X;X-X@XOXOXOXOXOXOX+XOX$X$X3X.XI.2 ZXZXZXZXZXZXZX",
"ZXZXZXZXZXZXZXZXZXZXZXZXZXZXP *Xx.: ZXZXZXZXZX- w.y.j.F qXo.R T G k K 0.c.c.c.v.v.C.C.C.`.[.`.`.`.Y.R.P.0.h 2 ZXZXZXZXZXZXZXZXZX",
"ZXZXZXZXZXZXZXZXZXZXZXZXZXZXf *XG.t ZXZXZXZXZX# w.y.=.t o.uXlXzX| ~ W  .eXwX0X0XY 3 E 7 7 > M C h 2 8 . ZXZXZXZXZXZXZXZXZXZXZXZX",
"ZXZXZXZXZXZXZXZXZXZXZXZXZXZX2 Q.L.w ZXZXZXZXZXZX8.y.-., 2 G H | 6 ` ` ! kXlXaXuXH ^ ` ) E 5 I T !.x 4.0 9 = ZXZXZXZXZXZXZXZXZXZX",
"ZXZXZXZXZXZXZXZXZXZXZXbXZXZX2 Q.K.u ZXZXZXZXZXZXn p.0 Y D W.k.5 Q ~ ^ & S D I ; E ` ` ^ ; I I T !.g 4.6.6.7.f ZXZXZXZXZXZXZXZXZX",
"ZXZXZXZXZXZXZXZXZXZXZXmXZXZXZXW.A.p ZXZXZXZXZXZXg y.s F.H 7 7 ] [ o.] Q 7 c.W.( @.` ) 3 Z I I U !.c 5.=.6.|.b ZXZXZXZXZXZXZXZXZX",
"ZXZXZXZXZXZXZXZXZXZXZXZXZXZXZXP Z.p # ZXZXZXZXZX2 n L iXH / / ( F o.] ! ] 7 [ +.@.` E B U I I I !.n 0 =.g.E.- ZXZXZXZXZXZXZXZXZX",
"ZXZXZXZXZXZXZXZXZXZXZXZXZXZXZXC *X<.1 ZXZXZXZXZXZX, H.iX0XqXrXuXeXwX| H ! / X.+...W 5 I I I I I !.I.9 e..Xh ZXZXZXZXZXZXZXZXZXZX",
"ZXZXZXZXZXZXZXZXZXZXZXZXZXZXZX4 *X<.= ZXZXZXZXZXZX+ | yXNXBXBXMXMXNXNXzXyXqX| 7 E 5 U I I I U U !.P.9 R.b ZXZXZXZXZXZXZXZXZXZXZX",
"ZXZXZXZXZXZXZXZXZXZXZXZXZXZXZX- Q.x.: ZXZX2 d k z s H vXMXNXzXiX| rXkXxXNXzXkXuXR T W.U I I I W.!.G f G - ZXZXZXZXZXZXZXZXZXZXZX",
"ZXZXZXZXZXZXZXZXZXZXZXZXZXZXZXZXk.x., 3 > v.%X:XXX|.Z cXNXzXlXF.F L F.yXkXlXzXzXuXW.!.T I I W.W.d 7.t.h.R.0.V ZXZXZXZXZXZXZXZXZX",
"ZXZXZXZXZXZXZXZXZXZXZXZXZXZXZXZXC x.w X.S %X}.{.[.Y.N eXMXCXnXcXfXsXyXsXpXpXkXlXpXtX9XP U W.P f 8.g.t.r.6.h.E.I.4 ZXZXZXZXZXZXZX",
"ZXZXZXZXZXZXZXZXZXZXZXZXZXZX6 [ [ F w X.H T.[.[._.n b | NXBXVXBXMXzXlXkXlXkXyXyXyX!.!.T P G s (.[.(.Y.g.e.6.6.T.E.f ZXZXZXZXZXZX",
"ZXZXZXZXZXZXZXZXZXZXZXZXZXZX/ %.&. .q [ [ w.[.].9.0..XI cXBXVXVXVXCXMXMXNXzXpXyXtX!.T I V 8 z {.[._.^.^.p.y.6.=.h.c ZXZXZXZXZXZX",
"ZXZXZXZXZXZXZXZXZXZXZXZXZXZXQ O.O.7 q 6 X.Z ^.f.c .X@Xj.eXNXVXVXVXBXBXMXzXlXyXyX!.T Z 4 7.l 0.oX[.].^.^.a.p.e.=.0 . ZXZXZXZXZXZX",
"ZXZXZXZXZXZXZXZXZXZXZXZXZXZXZX! [ X.< & / ( n k E. X>Xv.} vXBXVXVXBXCXNXlXpXpXtXT S s 8.p.x q.oX[.]._.^.U.p.g.6., * ZXZXZXZXZXZX",
"ZXZXZXZXZXZXZXZXZXZXZXZXZXZXZX/ %.%.Q & ) ) < c #X<X,X,XL eXNXVXVXBXBXzXkXkXtXT 5 M f.p.p.x q.XX{.[.].^.^.g.7.5 ^ ) & ZXZXZXZXZX",
"ZXZXZXZXZXZXZXZXZXZXZXZXZXZXZX3 [ [ [ ! ) ` 6 E.#X>X,X;Xv.| xXMXVXBXBXlXkXsX| B e g.s.s.s.x c.XX{.].]._.f.j 7 ..@...) * ZXZXZXZX",
"ZXZXZXZXZXZXZXZXZXZXZXZXZXZXZXZX$ X.&.O.E E V 3X@X;X,X,X-XK eXNXBXVXNXlXlXrXM r h.a.s.p.p.l w.C.}._.f.k 7 _ @.+.#.#...W ZXZXZXZX",
"ZXZXZXZXZXZXZXZXZXZXZXZXZXZXZXZXZX[ O.! % @ I.#X:X,X,X;X-Xv.Y vXMXBXNXzXyXB r h.B.s.s.p.d.8.g j j N 7 X.+.+.#.#.%.%.@.) $ ZXZXZX",
"ZXZXZXZXZXZXZXZXZXZXZXZXZXZXZXZXZX% A t ZX> .X#X>X,X,X,X-X-XK uXMXMXNXlXY e z.a.a.s.s.s.y.d.8.4.5.> O.%.&.*.&.%.%.$.X.W % ZXZXZX",
"ZXZXZXZXZXZXZXZXZXZXZXZXZXZXZXZXZXZXK u ZXf #X@X,X,X,X,X>X}.h.U xXNXzX0Xw z.V.^.a.s.s.p.d.d.y.d.4.t O.#.$.*.*.&.#.( & % ZXZXZXZX",
"ZXZXZXZXZXZXZXZXZXZXZXZXZXZXZXZXZXZXA i + P 3X<X,X*XC.*X%X%X}.K rXNXxXD z.V.B.a.a.s.p.p.d.d.d.4.4.9 ] _ X.*.O.[ 3 & % ZXZXZXZXZX",
"ZXZXZXZXZXZXZXZXZXZXZXZXZXZXZXZXZXZX4 i + b #Xc.L L , t J c.'.V.K rXNX| z.a.U.a.a.s.p.d.d.8.x 9 8 O . = 3 _ E * * % ZXZXZXZXZXZX",
"ZXZXZXZXZXZXZXZXZXZXZXZXZXZXZXZXZXZX- i #   M H | } D A 4 X z ).T.k qXo.j.(.U.a.a.s.p.y.l e F A N o X . @ % @ ZXZXZXZXZXZXZXZXZX",
"ZXZXZXZXZXZXZXZXZXZXZXZXZXZXZXZXZXZXZXr = # D F.F.I Z C N o . z _.).z S J B.M.M.a.a.p.l S F.} Z M M 8 X   ZXZXZXZXZXZXZXZXZXZXZX",
"ZXZXZXZXZXZXZXZXZXZXZXZXZXZXZXZXZXZXZXq = S qXwX| I A M N 2 O . l w.w.s 8 w.9.9.9.l x N | F.Y Z A M N o o   ZXZXZXZXZXZXZXZXZXZX",
"ZXZXZXZXZXZXZXZXZXZXZXZXZXZXZXZXZXZXZXt : D 0XqX| Z Z M N s o . # ZXZXZXZXZXZXZXZXZX@ Y wXF.U Z Z M s 2 O . ZXZXZXZXZXZXZXZXZXZX",
"ZXZXZXZXZXZXZXZXZXZXZXZXZXZXZXZXZXZXZX# + # S Y R L Z M M N o . # ZXZXZXZXZXZXZXZXZX; R wXF.R Z Z M N o     ZXZXZXZXZXZXZXZXZXZX",
"ZXZXZXZXZXZXZXZXZXZXZXZXZXZXZXZXZXZXZXZXZXZXZXZX; ; - > > - .   ZXZXZXZXZXZXZXZXZXZXZXS Y | Y B 4 > - # ZXZXZXZXZXZXZXZXZXZXZXZX",
"ZXZXZXZXZXZXZXZXZXZXZXZXZXZXZXZXZXZXZXZXZXZXZXZXZXZXZXZXZXZXZXZXZXZXZXZXZXZXZXZXZXZXZXZXZX# # ZXZXZXZXZXZXZXZXZXZXZXZXZXZXZXZXZX",
"ZXZXZXZXZXZXZXZXZXZXZXZXZXZXZXZXZXZXZXZXZXZXZXZXZXZXZXZXZXZXZXZXZXZXZXZXZXZXZXZXZXZXZXZXZXZXZXZXZXZXZXZXZXZXZXZXZXZXZXZXZXZXZXZX",
"ZXZXZXZXZXZXZXZXZXZXZXZXZXZXZXZXZXZXZXZXZXZXZXZXZXZXZXZXZXZXZXZXZXZXZXZXZXZXZXZXZXZXZXZXZXZXZXZXZXZXZXZXZXZXZXZXZXZXZXZXZXZXZXZX"
};
