/* XPM */
static char *_798b29989f145d1bf1fe7b2a1a6ce13bDyKvagabXFpUhOe[] = {
/* columns rows colors chars-per-pixel */
"64 64 20 1 ",
"  c None",
". c black",
"X c #161616",
"o c #241F17",
"O c #181F29",
"+ c #1F2836",
"@ c gray14",
"# c #282828",
"$ c #292833",
"% c gray21",
"& c #ED2929",
"* c #FC2C2C",
"= c #868686",
"- c #9D9D9D",
"; c #AAAAAA",
": c #B7B7B7",
"> c #CECECE",
", c #D7D7D7",
"< c #E4E4E4",
"1 c white",
/* pixels */
"                                                                ",
"                                                                ",
"                          ooooooooooo                           ",
"                         o<<<<<<<<<<<oo                         ",
"                       oo11<<<<<<>>>><<o                        ",
"                      o<11<<<>>>>>>>>>>>o                       ",
"                     o<11<<>>>>>>>>>>>>>>o                      ",
"                    o<11<>>>>>>>>>>>>>>>>>o                     ",
"                   o<<1<>>>>>>>>>>>>>>>>>>o                     ",
"                   o<<<>>>>>>>>>>>>>>>>>>>o                     ",
"                   o<<<>>>>>>>>>>>>>>>>>>>o                     ",
"                   o<<>>>>>>>>>>>>>>>>>>>>o                     ",
"                  o<<<>>>>>><<<<<<<<<<<<<<o                     ",
"                  o<<<>>>>><<<<<<<<ooo<<<<<o                    ",
"                  o<11::::><ooooooo&&&oooooo                    ",
"                  o<1>>>:::o&&&&&&&***&&&oo                     ",
"                  o<<>>>>>>o&************o                      ",
"                   o>>>>>>>o&*************o                     ",
"                   o>>>>>>>o&*************o                     ",
"                   o>>>>>>>o&************o                      ",
"                    oo>>>>>o&******oo****o                      ",
"                      oooooXooooooo::oXXo                       ",
"                        ooXXXXXXXo::::oo                        ",
"                     ooo%%ooooooo%%:::o                         ",
"                    o%%%%%%o%%%%%%#:.:o                         ",
"                   ooooo##%%%###oo:::ooo                        ",
"                  o,,>>>o##%#ooooooooo,,oo                      ",
"                  o,>>>:oo##o;;;;;;;;o>>,,o                     ",
"                 o,,>>>>:ooo;;;;;;;;;;o>>>,o                    ",
"                 o,>>>>::o;;;;;;;;;;;;;o>>>o                    ",
"                o,>>>>>::o;;;;;;;;;;;;;oo>>o                    ",
"                o,>>>>>::o;;;;;;;;;;;;;;o>>o                    ",
"                o,>>>:::o;;;;;;;;;;;;;;;o:>o                    ",
"                o>>>oo::o;;;;;;;;;;;;;;;oo:o                    ",
"                o>>o--ooo-;;;;;;;;-;;;;;o oo                    ",
"                 oo-----o-ooooo;;-o-;;;;o                       ",
"                  o------oO++++o;-o--;;;ooooooo                 ",
"                  oo-----O+++++o--oo--;ooO+++++o                ",
"                   ooo---OO+++Oo-o@o---o oO+++Oo                ",
"                     ooo-OOOOOooo@@ooooo oOOOOoo                ",
"                      o@oooooo@@@@@@@@o   ooooo                 ",
"                      o@@@@@@@@@@@@@@@o                         ",
"                      o@@@@@@@@@@@@@@@o                         ",
"                      o@@@@@@@@@@@@@@@o                         ",
"                      o@@@@@@@@@@@@@@@o                         ",
"                      o@@@@@@@@@@@@@@@o                         ",
"                      o@@oooooooo@@@@@o                         ",
"                      ooooo----oooooooo                         ",
"                      o=--o-------=oo-o                         ",
"                      o=---o-----=o---o                         ",
"                      o=--ooo--==oooooo                         ",
"                      ooooo;o===o===--oo                        ",
"                     o==--;-oo=oo====-;o                        ",
"                     o==--;--oooo=====-;o                       ",
"                     o===---o   oo====-;o                       ",
"                    o======o     ooo==--o                       ",
"                    o=====oo       oo==-o                       ",
"                    o===oo          o==-o                       ",
"                    o=;;o           o===-oo                     ",
"                    ooooo           oo==--;o                    ",
"                    ooooo            ooooooo                    ",
"                    $$$$$$           $$$$$$$                    ",
"                     $$$$$$$          $$$$$$$$                  ",
"                      $$$$$$$$$$$$$$$$$$$$$$$$                  "
};
