/* XPM */
static char *_12dce474310465ff14958c88900aa3a50BUWZ1BAN9LghLS[] = {
/* columns rows colors chars-per-pixel */
"72 72 217 2 ",
"   c #000624",
".  c #000E2C",
"X  c #00112F",
"o  c #000F30",
"O  c #001533",
"+  c #011836",
"@  c #001639",
"#  c #011B3B",
"$  c #081C39",
"%  c #0B223F",
"&  c #011D42",
"*  c #001F49",
"=  c #032145",
"-  c #02244C",
";  c #082748",
":  c #0B2A4C",
">  c #162A45",
",  c #192D47",
"<  c #162E4C",
"1  c #0E314E",
"2  c #17314E",
"3  c #012653",
"4  c #032A54",
"5  c #0A2D53",
"6  c #002759",
"7  c #022C5C",
"8  c #082F5A",
"9  c #102F51",
"0  c #0D3556",
"q  c #04305F",
"w  c #0C335C",
"e  c #163254",
"r  c #123A55",
"t  c #15365A",
"y  c #16395C",
"u  c #1A3A5D",
"i  c #2A3E57",
"p  c #2A3F59",
"a  c #043162",
"s  c #0B3461",
"d  c #0D3C66",
"f  c #133A63",
"g  c #193C63",
"h  c #133C6A",
"j  c #193F69",
"k  c #17415B",
"l  c #2A415C",
"z  c #0F416C",
"x  c #1D4265",
"c  c #17466A",
"v  c #1C436C",
"b  c #1F5169",
"n  c #1A4370",
"m  c #174B74",
"M  c #1E4973",
"N  c #1A5479",
"B  c #214466",
"V  c #2B4563",
"C  c #234A6C",
"Z  c #2C4B6C",
"A  c #22566F",
"S  c #234C74",
"D  c #2C4E72",
"F  c #255677",
"G  c #2C5174",
"H  c #2D547C",
"J  c #335475",
"K  c #345779",
"L  c #32597E",
"P  c #3A5D7F",
"I  c #29667C",
"U  c #57697D",
"Y  c #1E5D82",
"T  c #285781",
"R  c #245A84",
"E  c #345C82",
"W  c #3A5F82",
"Q  c #286689",
"!  c #356286",
"~  c #3B6385",
"^  c #3B658B",
"/  c #3A698F",
"(  c #357A8C",
")  c #266F91",
"_  c #336C96",
"`  c #3B6B92",
"'  c #346F9A",
"]  c #2D7392",
"[  c #3A7697",
"{  c #35729D",
"}  c #3877A3",
"|  c #426A8B",
" . c #47758D",
".. c #426D92",
"X. c #496F91",
"o. c #497698",
"O. c #517494",
"+. c #527A9E",
"@. c #5A7A9B",
"#. c #467EA3",
"$. c #3B8497",
"%. c #3B8BA5",
"&. c #488B9E",
"*. c #7D8C9E",
"=. c #4483AC",
"-. c #5581A4",
";. c #5B84A5",
":. c #5687AB",
">. c #5B89AD",
",. c #4496A8",
"<. c #4286B2",
"1. c #548DB4",
"2. c #5A8DB2",
"3. c #469CB2",
"4. c #5C94B8",
"5. c #678CAC",
"6. c #648DAE",
"7. c #6292A4",
"8. c #7F90A0",
"9. c #648FB1",
"0. c #6592B4",
"q. c #6995B7",
"w. c #6D9ABC",
"e. c #799AB6",
"r. c #729DBD",
"t. c #4BA6BA",
"y. c #55ACB7",
"u. c #54B2BB",
"i. c #519DCA",
"p. c #6B9EC2",
"a. c #57B8C6",
"s. c #56A5D2",
"d. c #59A9D6",
"f. c #66A1C5",
"g. c #69A5C9",
"h. c #74A3C4",
"j. c #77A6C7",
"k. c #71B0CA",
"l. c #74B3D6",
"z. c #75B5D9",
"x. c #77B8DD",
"c. c #7CBADD",
"v. c #69B9E5",
"b. c #76BFE6",
"n. c #5DC2CB",
"m. c #5FC7D4",
"M. c #62CAD3",
"N. c #68D6DB",
"B. c #6CDDE4",
"V. c #74C9F5",
"C. c #78CFFA",
"Z. c #6FE3E9",
"A. c #73E8EC",
"S. c #75EDF1",
"D. c #77F1F2",
"F. c #78F3F4",
"G. c #7EFCFC",
"H. c #8091A2",
"J. c #8196AA",
"K. c #8198AE",
"L. c #8C9BAA",
"P. c #829AB2",
"I. c #829CB5",
"U. c #829DB6",
"Y. c #8DA6BE",
"T. c #99A7B5",
"R. c #99A8B6",
"E. c #99ABBC",
"W. c #85ABC8",
"Q. c #99AFC1",
"!. c #9AB0C3",
"~. c #9AB1C5",
"^. c #9AB1C6",
"/. c #91B5CF",
"(. c #84B3D4",
"). c #86B6D8",
"_. c #89BCDD",
"`. c #92B6D0",
"'. c #93B9D4",
"]. c #96BDD8",
"[. c #8EC9D7",
"{. c #8FC1E2",
"}. c #85C6E9",
"|. c #92C4E4",
" X c #97CAE9",
".X c #99CCEC",
"XX c #83CEF5",
"oX c #88D3F9",
"OX c #91D4F7",
"+X c #9AD8F9",
"@X c #A4CAE4",
"#X c #A7CDE6",
"$X c #ADD3EC",
"%X c #A1D4F4",
"&X c #A4DBFB",
"*X c #AADFFE",
"=X c #B6DCF3",
"-X c #99EEF1",
";X c #83F6F7",
":X c #82FFFF",
">X c #8BFFFF",
",X c #ABE0FF",
"<X c #B2E7FF",
"1X c #BFE6FD",
"2X c #B4E9FF",
"3X c #B0FAFB",
"4X c #C4D1DA",
"5X c #C5D6E3",
"6X c #D3DFE7",
"7X c #D3DFE8",
"8X c #D3E0E7",
"9X c #D3E1EA",
"0X c #D3E2EC",
"qX c #D4E2ED",
"wX c #C3E9FF",
"eX c #DFECF3",
"rX c #E6F2F8",
/* pixels */
"a a 7 7 6 6 6 6 6 6 6 6 6 6 6 6 7 7 6 6 6 6 6 6 6 6 6 6 6 6 6 6 6 6 6 6 6 6 6 6 7 6 6 6 6 6 6 6 6 6 6 6 6 6 6 6 6 6 6 6 6 6 6 6 6 6 7 6 6 7 7 a ",
"a s n H E T E T T E T T E T T E T T E T E T E T T T T E E T T E E T H H T E H T T T E T T E E T T E T T E T T E H T H H E H T T T E T E T j h a ",
"7 n @.W.^.^.^.^.^.^.^.^.^.^.Q.Q.^.^.^.^.Q.Q.^.^.!.^.Q.^.^.^.^.^.^.^.^.^.^.^.^.^.^.^.^.^.Q.^.^.^.!.^.Q.^.^.^.^.`.^.^.^.^.^.^.^.^.^.^.^.Q.Y.@.n 7 ",
"6 H Y.eXrXqXqXqXqXqXqXqXqXqXqXqXqXqXqXqXqXqXqXqXqXqXqXqXqXqXqXqXqXqXqXqXqXqXqXqXqXqXqXqXqXqXqXqXqXqXqXqXqXqXqXqXqXqXqXqXqXqXqXqXqX7XqXrXeXY.T 6 ",
"7 T ^.rX5XW.e.U.U.U.U.U.P.P.P.P.U.U.U.U.U.I.I.U.P.U.U.U.U.U.U.U.U.U.U.U.U.U.U.U.U.U.U.U.U.U.U.U.P.U.U.U.U.U.U.U.U.U.U.U.U.U.U.U.U.e.W.5XrX^.H 7 ",
"6 H ^.qXY.H h j n n n j v n n n n h n n n n n n n n n n n n h n n n n n n n n n n j n n n n n n n n j n n n n n n n n n n n n n j h H Y.qXQ.H 6 ",
"6 H ^.qXK.h 6 6 a 6 6 6 7 Y _ R a 7 7 7 7 6 7 7 6 6 6 6 6 6 6 6 6 6 6 6 6 6 6 6 7 7 7 7 7 6 7 6 6 6 6 6 7 6 6 6 6 6 6 a 6 6 6 6 6 6 h e.qX^.H 7 ",
"6 E ^.7XP.j 6 7 a a 7 7 d %.a.i.m 7 7 7 a 7 7 a 7 a a a a a a a a a a a a 7 a a 7 a 7 a 7 7 a 7 7 a a a a 7 a a a a 7 a 7 7 7 7 7 6 v U.qX^.H 6 ",
"7 H ^.9XU.h 7 7 a 7 7 6 h t.A.a.N 6 7 a a 7 q q q q a a a a 7 a a a a a 7 7 a a 7 a 7 a q q q q q a q q q a 7 a 6 a 7 7 c Y Y d 7 6 j U.7X^.H 6 ",
"6 H ^.qXU.v 4 7 7 a 7 7 z i.S.a.N 6 6 7 a a q 7 8 a 7 7 8 7 a a a 6 a 6 a a 7 a a 7 a 7 q q 7 a 7 q 7 q 7 a 7 a 7 6 6 7 ) a.t.Y 7 3 v I.0X^.H 6 ",
"6 G Q.qXU.v 6 7 a 7 7 6 z t.Z.m.] z s 7 7 7 q q a 7 7 a 7 a a 7 7 a a a a 7 a a s 7 7 8 q 7 q q q q q q q 7 7 8 n Y h Y %.m.a.Y 7 3 v P.0X^.H 6 ",
"6 H ^.qXI.h 3 7 7 7 7 6 z %.S.S.a.%.m 7 6 7 q 7 7 7 a 7 8 7 7 8 a 7 a 6 7 8 7 8 7 7 7 a q 7 7 8 7 7 7 q 7 7 6 z } i.d.a.t.%.) z 7 6 j P.0XQ.H 6 ",
"3 H Q.9XP.v 6 7 7 7 7 3 z %.G.:XG.m.] d q 7 7 8 q 7 7 q 6 8 7 8 7 7 7 7 7 7 6 8 7 7 7 7 8 7 q 7 q 7 7 7 7 7 s R a.D.G.Z.t.N 7 7 7 6 v P.qX^.H 6 ",
"6 D ^.qXP.j 3 7 7 7 7 6 z %.S.:X:XS.a.%.N w 4 7 8 7 7 4 6 6 6 6 6 6 6 6 6 6 6 6 6 6 6 3 6 6 7 8 7 w 7 4 6 z ] u.Z.:XB.t.Q d 6 6 4 6 j I.qXQ.D 3 ",
"3 H Q.9XP.v 3 7 8 7 7 3 d ,.S.:X:XG.D.m.] w 6 7 7 6 q q 8 s s s a a s a s s s a s s s a s 7 7 6 7 4 7 6 7 Q a.D.:XA.3.N w 7 7 8 7 6 j U.qXQ.D 3 ",
"3 G !.0XP.j 3 4 8 8 7 6 h 3.F.>X:XF.M.3.Q q 3 6 4 6 j W #.+.+.+.@.+.@.+.@.+.+.+.@.+.+.+.~ h 4 6 4 6 w m ) a.S.G.B.t.Q 7 3 4 8 7 3 3 j U.qXQ.H 3 ",
"3 D Q.qXU.j 3 6 4 7 4 3 z ,.S.:X:XN.$.m s 7 4 7 6 6 T h.@X#X@X@X@X@X@X@X@X@X@X@X@X@X#X@Xh.T 6 6 7 3 q ) a.D.G.Z.3.N s w 4 7 7 8 4 3 j K.0XQ.D 6 ",
"3 H Q.qXP.j 3 4 8 7 7 3 d ] a.N.m.3.m 3 - 7 v L W W 5.@XwX$X'.`.'.'.'.'.'.'.'.'.'.].$XwX@X>.E T H v w Q a.N.N.t.Q 4 3 6 7 4 4 4 6 3 j P.qXQ.D 3 ",
"* D Q.qXP.j 3 6 8 4 7 4 w c Y Q Q N w 4 * w X.W.'.'.@XwX=Xe.| E E E E E E E E E E ^ p.%X*X|.).).g.` w s F Q Q F d 4 6 4 7 7 7 8 4 3 g P.0XQ.D 3 ",
"3 D Q.qXK.g - 4 7 4 4 4 4 4 4 7 3 4 4 7 f E r.=XwX$X@X@XW.^ 8 s n S n S n S S n s 8 W j.|.|. X&X%Xw.H s 7 3 7 4 4 4 4 7 8 4 4 4 6 3 g P.0XQ.D 3 ",
"3 G Q.9XK.g 3 6 4 4 4 4 4 3 3 3 3 3 * f ..W.$XwX@X5.O.X.W f 6 T 2.p.q.q.0.q.p.2.T 6 f E ....>.{.,X.Xp...w * * 6 4 4 4 7 4 4 4 4 3 3 g K.7XQ.D 3 ",
"- D Q.0XP.g - 3 4 4 4 7 4 4 4 4 4 6 w E j.=XwX$Xq.D 8 f j s S 2..X*X*X&X*X*X*X.X5.n f h f 7 S 0..X,X%Xp.H w 4 4 4 4 4 4 4 4 4 4 6 3 g K.qXQ.D * ",
"* D Q.9XK.g - 6 4 4 4 4 4 4 4 3 3 x X.e.$XwX@X5.E 8 s / +.9.0._.*X<X<X<X<X<X<X*X_.q.>.-.^ f 6 E 2.{.,X.Xq.` j 6 4 4 4 4 4 4 4 4 3 * g K.qXQ.D 3 ",
"3 D Q.9XK.f - 3 4 4 4 4 4 4 3 - 6 L W.=XwX$X5.C 6 8 T h..X.X.X%X*X*X*X*X*X*X*X*X+X.X.X.Xp.E 8 6 C 2..X,X%Xh.T 4 3 4 4 4 4 4 4 4 3 3 g P.7XQ.D - ",
"* D Q.7XK.g * 3 4 4 4 4 4 4 3 - - P '.1X@Xq.K 4 f / +.q.p.p.j._.+X&X+X&X+X&X&X+X_.j.p.p.0.+./ f 4 L 0.|.*X(.E - - 3 4 4 4 4 4 4 4 * g K.7XQ.D - ",
"* D Q.0XK.g * 6 3 4 4 - 4 4 4 - 3 W ].#X5.D 5 8 W j.j.` B j T 2.}.+XOXOXOXOX+X}.2.H j n ..j.j.^ 8 6 C >. Xl.E 3 - 3 4 4 - 4 4 - 4 * g K.7XQ.D * ",
"* D Q.7XK.g - 3 4 4 4 ; 4 - 6 y D 5.#X@XX.8 w E +.j.p...n 8 7 { b.oXXXXXXXC.oXb.} w 6 M ..p.j.+.H w 6 ..|.{.-.m w 4 4 4 - 4 4 - - * g K.qXQ.S * ",
"* D Q.0XK.y * 3 - 3 4 - - - 4 P e.@XwX#XX.s ^ p.0.....i.1.S s ' v.C.V.V.V.V.C.v.{ s S 1.i...| 0.h.^ y ` |.&X_.2.H 4 - - 4 4 - 4 3 * f K.7XQ.D * ",
"* D Q.7XK.f * - 4 - 4 - 4 = 5 O.@XwX=XW.P y >. Xp.C n 1.p.' T ' i.d.s.s.s.s.d.i.{ N ` p.1.v v r..X;.g T j..XOXl./ 8 = 4 - - 4 - - * g J.7XQ.Z * ",
"* Z Q.7XK.u * - ; 4 ; 4 - * 8 O.#X$Xe.W t w >..Xp.j : S ' #.%.} Q R R Y R R R Q } %.#.' S 4 j p..X>.w t E 2.V.l./ 4 * 4 4 - - 4 - * u J.7XQ.Z * ",
"* Z E.7XK.u * - - - - - - - 5 O.@X].~ 5 - x 0..Xj.H 8 w S <.i.{ s 8 y x g y 8 s { i.<.m w 8 H h..X0.B 4 4 E k.z.` 4 = - - - ; 4 3 * g J.7XQ.Z * ",
"* Z Q.7XJ.u * * - 4 4 - - - 4 O.@X`.J 8 H >.).%X_.>.' ' { } { n - x o.7.7.O.B 3 n { } { _ o.2._.%X).>.H 8 S g.z./ 4 = ; 4 4 - - * * t J.7XQ.Z * ",
"* Z Q.7XJ.u * - - - 3 : * * 5 O.@X`.L x >..X*X*X+X}.b.v.i.Q w - w  .[.3X3X[. .1 4 0 Q i.v.V.}.+X*X*X.X5.x S g.z.` 4 * - - : - - 3 * t J.7XQ.Z * ",
"* Z Q.7XK.t & - - - - - 3 * 5 O.@X`.L x w.,X<X,X+X+XoXC.d.R 5 x  .k.-X3X3X-Xy.I 0 4 R d.C.oXOX&X*X2X,Xq.v H g.z./ 4 * ; - 4 - - * & u J.7XQ.Z & ",
"& V Q.7XJ.u * * ; - - - = * 5 O.@X/.K B 0.&X<X,X&XOXXXV.d.R y O.[.-X>X>X>X;XB.u.Q 0 R s.V.XXOX&X*X<X*X0.B S g.z./ 4 = - - - - ; - * u J.7XQ.Z & ",
"& Z E.7XJ.t & - - - = - = * : O.@X/.K x 0.,X<X*X+XOXXXV.s.Y u 7.3X3X>X:XG.;XF.N.( y T s.V.XXOX+X,X<X&Xq.v S f.z.` : * = ; - - - * & t J.7XQ.Z & ",
"& Z Q.7XK.t & = = - - - - & : O.@X/.J B 0.*X<X,X+XOXXXV.s.N f 7.3X3X:XG.:XG.F.N.( y Y s.V.XXOX+X,X<X&X0.B S g.z./ ; & - - - = - * & e J.7XQ.V & ",
"& V Q.7XJ.e & * - ; - - * & : O.@X/.J B 0.&X<X*X&XOXXXV.s.T t  .[.-XF.G.G.D.N.u.I w R s.V.oXOX&X,X<X,X0.B S f.z./ 4 & = = - = - * & t J.7XY.Z & ",
"& Z E.7XJ.t & = - = * = * & ; O.@X`.J x q.*X<X*X+X+XoXC.d.T 4 u  .y.N.D.D.N.3.I 0 ; T s.C.oX+X+X,X<X,Xw.B S f.z./ 4 & - - = = - * & t J.7XQ.Z & ",
"& V E.7XJ.t # = = - = = * & ; O.@X`.K g 5..X*X*X+X}.V.v.i.Q 0 - : I u.N.N.u.I 1 * 0 Q i.v.V.}.+X*X*X.X>.g S f.z./ ; & = = - = = * & e J.7XR.l & ",
"& V R.7XJ.e & * = - * = = # ; O.@X^.J : D ;.(.%X_.:.[ _ _ } _ v = 0 I ( ( I 0 * v _ } _ _ ` >._.%X(.;.J 5 S g.z./ ; # * = = - * & @ t J.7XE.V & ",
"& V Q.qXJ.e & * = = = * * & ; O.@X'.~ - * B 9..Xh.D : 5 n =.i._ 1 ; 8 0 0 8 ; w _ i.%.M 5 5 D h..X0.B = - H f.l./ ; & = * = = * * & e J.7XE.V & ",
"& V Y.7XJ.e & & = & = = & & = O.@X#Xq.L 5 5 ;..Xr.u - b _ } <.} R R R F T T T Q { =.#.` C = y r..X;.5 5 H ..:.#.C ; * = = = = & * @ e J.7XE.Z & ",
"@ V R.7XJ.e @ & = = & = = # ; X.@XwX$Xh.K y @..Xw.g x :.p./ C _ i.d.s.s.s.s.d.i._ n _ p.1.B k w..X@.r J i.4.E y - = & & = & = = & & e J.7XE.V @ ",
"& V R.7XH.e & & = # = = = # ; K e.@X*X|.| 9 W r.5.| | 2.:.C : _ v.C.V.V.V.V.C.v._ 5 v 1.2...~ 9.f.~ 9 ! z.k.D # @ = = = & = = % & # e H.7XE.V @ ",
"@ V Q.7XJ.e o & = & = & & # = e Z @.|.|.| * 9 D +.h.w.| x = : ..V.oXXXXXXXXXoXb.[ ; = x / w.h.+.J 9 ; ! l.g.D & @ = & = = & & & * @ e J.7XE.V @ ",
"@ V Q.7XH.e & & = = % & = & = @ # J (.|.;.B = = P j.h.~ g y A >.}.+XOXOXOXOX+X}.>.S t p | h.h.P = = g +.c.g.G = # = = # # = & = # @ e H.7XE.V @ ",
"@ V R.7XJ.e o & & # & = # = = @ @ G ).&X].5.D = 0 P +.5.w.r.h._.+X&X&X+X+X&X+X+X_.h.r.q.5.+.P 2 = S +.l.XXg.A & @ & = # = & = # & @ e J.7XE.V @ ",
"o V T.7XH.e @ @ & & = # = # = @ # D r.%X,X.X;.l = = Z r. X.X.X%X*X,X,X,X,X,X,X*X%X.X.X.Xr.G ; = y +.b.XX}.4.C & @ & & # = # = % & @ e J.7XE.V @ ",
"@ V T.qXJ.e @ & # & # = # = % # % e ~ 0. X,X{.;.Z = : P +.;.5.).*X2X2X2X<X2X2X,X(.5.;.-.P : & C &.l.OXc.:.E r # @ @ # & # = & # # @ 2 H.7XE.V O ",
"o V Q.7XH.< @ & & = # & # = # & & = ; C w.%X,X.X>.l : 1 r : l ;. X,X*X&X&X&X*X X;.u : e < ; k -.c.oX}.1.C = % % = ; % # # = # = # @ 2 J.7XE.l @ ",
"@ V T.7XJ.< O # # # & $ # # @ @ # @ O : P r. X,X{.@.| | G ; % Z 7.q.5.q.5.5.q.;.Z % > D ~ ! +.l.oXc.2.L ; O @ : A I x % @ # # # # @ 2 J.7XE.V O ",
"o V E.7XH.< @ @ # # & # # # # # # # # % ; Z 0.%X&X X|.|.h.J = ; e g p u u i g y ; = K h._.c.c.}.}.:.B : % + + y ,.n.$.: @ # # # # O 2 8.8XE.l X ",
"@ l T.7XJ.< @ # # # # O = r b k = + # # O ; P r.(.W.{.&X X>.J B Z B C C C C C C C G >. X+Xc.f.g.4.L = O @ @ + x u.F.a.I r = @ # # O 2 8.8XR.l + ",
"o l E.7XH.< o # # & + O % ] u.$.1 O + # + % 2 Z D J O.c.OXV.r.f.f.f.f.f.f.f.f.f.f.g.[.oXc.o.A C x 0 % O # @ + k u.:XF.n.( 1 O @ # O 2 H.8XR.l + ",
"o V E.7XJ.< o @ @ @ % ; b y.S.n.I 1 % # + # # # O # k >.l.x.k.z.l.l.l.l.l.l.l.l.l.l.z.l.:.B + O # # # # # @ + r &.N.G.;Xa.I 1 = + O 2 H.8XE.l + ",
"O l R.8X8., X X O . > I u.Z.;XF.n.$.k % X O + O O O : Z I ! ~ ~ ~ ! ~ ~ ~ ! ! ! ! ! P I C : O O O + # # # # # % b ( n.:XD.u.$.r X X , 8.8XR.l X ",
"X l R.8X8.% % % ; ; b y.D.G.S.D.A.y.b @ X % # + + # # # # % % % # % = # % % % % % % % % $ # O # # # + O + + # # + 1 $.N.:XG.n.I % + , 8.8XR.l X ",
"O l R.8X8.r k $.,.,.y.A.G.N.,.&.&.( r + O # + # # # @ + O O O O O O O O O O X O O O O O O + # # + % + % # + % O X $ b $.n.G.F.u.( k , 8.8XR.b X ",
"X l R.8X*.2 I n.A.A.A.F.A.%.k % : : % + # + + # + + + + + + + + @ # + + + @ + + + + + + @ # + # # O # + # + + + # + # 1 $.N.:X;Xn.A r *.8XR.l X ",
"X i R.6X*.2 k %.u.u.u.u.,.A % . X O O + + + + # + + # + + + + + # + + # + + + @ + + + + + + + + + + + # + + + + + + X O k &.u.u.,.k , 8.8XT.l X ",
"X l R.8X8., % r k k k k k % % X O O + + + + + + + + + + + + + + + + O + + + + + + + + + + + + + O + + + + + + + + + O + % r k k r % , H.8XT.l . ",
". l R.8XH., . X X X X X X + X % + + + + + + + + O + + O + + + + + + # O O + + + + + + + + + + + + + + + + + + + + + + + O X X X X X , H.8XT.l . ",
". i R.6XH., . X O X + X X X + X + + O O + + O O # + O + O + O + + O O + + + O + O + O + + + O + O + + O + O + O + + O + + + X O X X % H.8XT.l . ",
". i T.8XH.> . X $ X X + + X $ X X X $ X + + X + X X + X X X X $ X X $ X X + $ X X X $ X $ X X X $ X $ X $ + X + $ X X X $ X $ X X X % L.8XT.i   ",
". i T.6X*.%   . .   . . . . . X X X . . .   . . . . . . X . . . .   . . . . X X X . . . . . X X . . . .   . . . . . X X . . . . .   $ *.8XT.i X ",
"X i T.8XL.i % > , , % % % % , % % , % , , , , % % % , , % % % , , , , % % % , % , % , % , % , % , % , % , % , , , % , % , % , % % % i L.8XT.i   ",
". i R.rX4XL.*.H.H.H.H.H.L.H.H.H.L.H.H.H.H.H.H.H.L.H.H.H.L.H.H.L.H.H.H.H.L.H.H.H.H.H.H.L.H.H.H.H.H.H.H.H.H.H.H.H.H.H.H.H.H.H.H.H.L.*.L.4XrXR.i X ",
". i L.eXeX8X6X6X6X6X6X6X6X6X8X8X8X8X8X8X8X8X8X8X8X8X8X8X8X8X8X8X8X8X8X8X8X8X8X8X8X8X8X8X8X8X8X8X8X8X8X8X8X8X8X8X8X8X8X8X8X8X8X8X8X8X8XrXeXL.i . ",
". , U L.T.T.T.T.T.T.T.T.T.T.T.T.T.T.T.T.T.T.T.T.T.T.T.T.T.T.T.T.T.T.T.T.T.T.T.T.T.T.T.T.T.T.T.T.T.T.T.T.T.T.T.T.T.T.T.T.T.T.T.T.T.T.T.T.L.U , . ",
"X $ , i i i i i l l l l i i l i l l l l l l l l i i l l l l l l l i l l i i l i i i i i i l i l i i i i i i i i i i i i i i i i i i i i i , $ X ",
"O O X . . . . . . .   . .   . .   .       .     .   . .   .     . .   .     . . . . . .   .   . . . . . . . .   . . . . .   . . .   . . . . X $ "
};
